<svg xmlns="http://www.w3.org/2000/svg" xmlns:xlink="http://www.w3.org/1999/xlink" width="120" zoomAndPan="magnify" viewBox="0 0 90 53.25" height="71" preserveAspectRatio="xMidYMid meet" version="1.0"><defs><g/><clipPath id="d9071caeb3"><path d="M 6 3 L 85 3 L 85 50 L 6 50 Z M 6 3 " clip-rule="nonzero"/></clipPath><clipPath id="f33c314a68"><path d="M 61.128906 3.289062 C 55.582031 3.289062 50.730469 5.769531 45.289062 10.066406 C 43.574219 11.445312 40.777344 11.664062 38.855469 10.582031 C 35.597656 8.75 32.527344 7.121094 27.273438 7.121094 C 15.695312 7.121094 6.273438 16.539062 6.273438 28.113281 C 6.273438 39.683594 15.695312 49.101562 27.273438 49.101562 L 61.488281 49.101562 L 61.507812 49.097656 C 67.539062 49 73.199219 46.578125 77.4375 42.285156 C 81.699219 37.972656 84.042969 32.257812 84.042969 26.199219 C 84.042969 13.566406 73.765625 3.289062 61.128906 3.289062 Z M 61.128906 3.289062 " clip-rule="nonzero"/></clipPath><linearGradient x1="272.809986" gradientTransform="matrix(0.262512, 0, 0, 0.262149, -65.343374, -51.830816)" y1="297.638" x2="569.069976" gradientUnits="userSpaceOnUse" y2="297.638" id="2edffd5722"><stop stop-opacity="1" stop-color="rgb(32.199097%, 68.199158%, 19.599915%)" offset="0"/><stop stop-opacity="1" stop-color="rgb(32.199097%, 68.199158%, 19.599915%)" offset="0.125"/><stop stop-opacity="1" stop-color="rgb(32.199097%, 68.199158%, 19.599915%)" offset="0.1875"/><stop stop-opacity="1" stop-color="rgb(32.115173%, 68.17627%, 19.624329%)" offset="0.203125"/><stop stop-opacity="1" stop-color="rgb(31.822205%, 68.09845%, 19.71283%)" offset="0.207031"/><stop stop-opacity="1" stop-color="rgb(31.613159%, 68.043518%, 19.776917%)" offset="0.210938"/><stop stop-opacity="1" stop-color="rgb(31.402588%, 67.987061%, 19.841003%)" offset="0.214844"/><stop stop-opacity="1" stop-color="rgb(31.193542%, 67.930603%, 19.90509%)" offset="0.21875"/><stop stop-opacity="1" stop-color="rgb(30.984497%, 67.874146%, 19.969177%)" offset="0.222656"/><stop stop-opacity="1" stop-color="rgb(30.775452%, 67.819214%, 20.033264%)" offset="0.226562"/><stop stop-opacity="1" stop-color="rgb(30.56488%, 67.762756%, 20.095825%)" offset="0.230469"/><stop stop-opacity="1" stop-color="rgb(30.355835%, 67.706299%, 20.159912%)" offset="0.234375"/><stop stop-opacity="1" stop-color="rgb(30.145264%, 67.649841%, 20.223999%)" offset="0.238281"/><stop stop-opacity="1" stop-color="rgb(29.936218%, 67.59491%, 20.288086%)" offset="0.242187"/><stop stop-opacity="1" stop-color="rgb(29.725647%, 67.538452%, 20.352173%)" offset="0.246094"/><stop stop-opacity="1" stop-color="rgb(29.516602%, 67.483521%, 20.41626%)" offset="0.25"/><stop stop-opacity="1" stop-color="rgb(29.307556%, 67.427063%, 20.478821%)" offset="0.253906"/><stop stop-opacity="1" stop-color="rgb(29.098511%, 67.370605%, 20.542908%)" offset="0.257812"/><stop stop-opacity="1" stop-color="rgb(28.887939%, 67.314148%, 20.606995%)" offset="0.261719"/><stop stop-opacity="1" stop-color="rgb(28.678894%, 67.259216%, 20.671082%)" offset="0.265625"/><stop stop-opacity="1" stop-color="rgb(28.468323%, 67.202759%, 20.733643%)" offset="0.269531"/><stop stop-opacity="1" stop-color="rgb(28.259277%, 67.146301%, 20.797729%)" offset="0.273438"/><stop stop-opacity="1" stop-color="rgb(28.048706%, 67.089844%, 20.861816%)" offset="0.277344"/><stop stop-opacity="1" stop-color="rgb(27.839661%, 67.034912%, 20.925903%)" offset="0.28125"/><stop stop-opacity="1" stop-color="rgb(27.629089%, 66.978455%, 20.98999%)" offset="0.285156"/><stop stop-opacity="1" stop-color="rgb(27.420044%, 66.923523%, 21.054077%)" offset="0.289062"/><stop stop-opacity="1" stop-color="rgb(27.210999%, 66.867065%, 21.116638%)" offset="0.292969"/><stop stop-opacity="1" stop-color="rgb(27.001953%, 66.810608%, 21.180725%)" offset="0.296875"/><stop stop-opacity="1" stop-color="rgb(26.791382%, 66.75415%, 21.244812%)" offset="0.300781"/><stop stop-opacity="1" stop-color="rgb(26.582336%, 66.699219%, 21.308899%)" offset="0.304688"/><stop stop-opacity="1" stop-color="rgb(26.371765%, 66.642761%, 21.372986%)" offset="0.308594"/><stop stop-opacity="1" stop-color="rgb(26.16272%, 66.586304%, 21.437073%)" offset="0.3125"/><stop stop-opacity="1" stop-color="rgb(25.952148%, 66.529846%, 21.499634%)" offset="0.316406"/><stop stop-opacity="1" stop-color="rgb(25.743103%, 66.474915%, 21.563721%)" offset="0.320312"/><stop stop-opacity="1" stop-color="rgb(25.534058%, 66.418457%, 21.627808%)" offset="0.324219"/><stop stop-opacity="1" stop-color="rgb(25.325012%, 66.363525%, 21.691895%)" offset="0.328125"/><stop stop-opacity="1" stop-color="rgb(25.114441%, 66.307068%, 21.754456%)" offset="0.332031"/><stop stop-opacity="1" stop-color="rgb(24.905396%, 66.25061%, 21.818542%)" offset="0.335937"/><stop stop-opacity="1" stop-color="rgb(24.694824%, 66.194153%, 21.882629%)" offset="0.339844"/><stop stop-opacity="1" stop-color="rgb(24.485779%, 66.139221%, 21.946716%)" offset="0.34375"/><stop stop-opacity="1" stop-color="rgb(24.275208%, 66.082764%, 22.010803%)" offset="0.347656"/><stop stop-opacity="1" stop-color="rgb(24.066162%, 66.027832%, 22.07489%)" offset="0.351562"/><stop stop-opacity="1" stop-color="rgb(23.855591%, 65.971375%, 22.137451%)" offset="0.355469"/><stop stop-opacity="1" stop-color="rgb(23.646545%, 65.914917%, 22.201538%)" offset="0.359375"/><stop stop-opacity="1" stop-color="rgb(23.4375%, 65.858459%, 22.265625%)" offset="0.363281"/><stop stop-opacity="1" stop-color="rgb(23.228455%, 65.803528%, 22.329712%)" offset="0.367187"/><stop stop-opacity="1" stop-color="rgb(23.017883%, 65.74707%, 22.393799%)" offset="0.371094"/><stop stop-opacity="1" stop-color="rgb(22.808838%, 65.690613%, 22.457886%)" offset="0.375"/><stop stop-opacity="1" stop-color="rgb(22.598267%, 65.634155%, 22.520447%)" offset="0.378906"/><stop stop-opacity="1" stop-color="rgb(22.389221%, 65.579224%, 22.584534%)" offset="0.382812"/><stop stop-opacity="1" stop-color="rgb(22.17865%, 65.522766%, 22.648621%)" offset="0.386719"/><stop stop-opacity="1" stop-color="rgb(21.969604%, 65.467834%, 22.712708%)" offset="0.390625"/><stop stop-opacity="1" stop-color="rgb(21.760559%, 65.411377%, 22.775269%)" offset="0.394531"/><stop stop-opacity="1" stop-color="rgb(21.551514%, 65.354919%, 22.839355%)" offset="0.398437"/><stop stop-opacity="1" stop-color="rgb(21.340942%, 65.298462%, 22.903442%)" offset="0.402344"/><stop stop-opacity="1" stop-color="rgb(21.131897%, 65.24353%, 22.967529%)" offset="0.40625"/><stop stop-opacity="1" stop-color="rgb(20.921326%, 65.187073%, 23.031616%)" offset="0.410156"/><stop stop-opacity="1" stop-color="rgb(20.71228%, 65.130615%, 23.095703%)" offset="0.414062"/><stop stop-opacity="1" stop-color="rgb(20.501709%, 65.074158%, 23.158264%)" offset="0.417969"/><stop stop-opacity="1" stop-color="rgb(20.292664%, 65.019226%, 23.222351%)" offset="0.421875"/><stop stop-opacity="1" stop-color="rgb(20.082092%, 64.962769%, 23.286438%)" offset="0.425781"/><stop stop-opacity="1" stop-color="rgb(19.873047%, 64.907837%, 23.350525%)" offset="0.429687"/><stop stop-opacity="1" stop-color="rgb(19.664001%, 64.851379%, 23.414612%)" offset="0.433594"/><stop stop-opacity="1" stop-color="rgb(19.454956%, 64.794922%, 23.478699%)" offset="0.4375"/><stop stop-opacity="1" stop-color="rgb(19.244385%, 64.738464%, 23.54126%)" offset="0.441406"/><stop stop-opacity="1" stop-color="rgb(19.035339%, 64.683533%, 23.605347%)" offset="0.445312"/><stop stop-opacity="1" stop-color="rgb(18.824768%, 64.627075%, 23.669434%)" offset="0.449219"/><stop stop-opacity="1" stop-color="rgb(18.615723%, 64.570618%, 23.733521%)" offset="0.453125"/><stop stop-opacity="1" stop-color="rgb(18.405151%, 64.51416%, 23.796082%)" offset="0.457031"/><stop stop-opacity="1" stop-color="rgb(18.196106%, 64.459229%, 23.860168%)" offset="0.460937"/><stop stop-opacity="1" stop-color="rgb(17.987061%, 64.402771%, 23.924255%)" offset="0.464844"/><stop stop-opacity="1" stop-color="rgb(17.778015%, 64.347839%, 23.988342%)" offset="0.46875"/><stop stop-opacity="1" stop-color="rgb(17.567444%, 64.291382%, 24.052429%)" offset="0.472656"/><stop stop-opacity="1" stop-color="rgb(17.358398%, 64.234924%, 24.116516%)" offset="0.476562"/><stop stop-opacity="1" stop-color="rgb(17.147827%, 64.178467%, 24.179077%)" offset="0.480469"/><stop stop-opacity="1" stop-color="rgb(16.938782%, 64.123535%, 24.243164%)" offset="0.484375"/><stop stop-opacity="1" stop-color="rgb(16.72821%, 64.067078%, 24.307251%)" offset="0.488281"/><stop stop-opacity="1" stop-color="rgb(16.519165%, 64.012146%, 24.371338%)" offset="0.492187"/><stop stop-opacity="1" stop-color="rgb(16.308594%, 63.955688%, 24.435425%)" offset="0.496094"/><stop stop-opacity="1" stop-color="rgb(16.099548%, 63.899231%, 24.499512%)" offset="0.5"/><stop stop-opacity="1" stop-color="rgb(15.890503%, 63.842773%, 24.562073%)" offset="0.503906"/><stop stop-opacity="1" stop-color="rgb(15.681458%, 63.787842%, 24.62616%)" offset="0.507812"/><stop stop-opacity="1" stop-color="rgb(15.470886%, 63.731384%, 24.690247%)" offset="0.511719"/><stop stop-opacity="1" stop-color="rgb(15.261841%, 63.674927%, 24.754333%)" offset="0.515625"/><stop stop-opacity="1" stop-color="rgb(15.05127%, 63.618469%, 24.81842%)" offset="0.519531"/><stop stop-opacity="1" stop-color="rgb(14.842224%, 63.563538%, 24.882507%)" offset="0.523437"/><stop stop-opacity="1" stop-color="rgb(14.631653%, 63.50708%, 24.945068%)" offset="0.527344"/><stop stop-opacity="1" stop-color="rgb(14.422607%, 63.452148%, 25.009155%)" offset="0.53125"/><stop stop-opacity="1" stop-color="rgb(14.212036%, 63.395691%, 25.073242%)" offset="0.535156"/><stop stop-opacity="1" stop-color="rgb(14.002991%, 63.339233%, 25.137329%)" offset="0.539062"/><stop stop-opacity="1" stop-color="rgb(13.793945%, 63.282776%, 25.19989%)" offset="0.542969"/><stop stop-opacity="1" stop-color="rgb(13.5849%, 63.227844%, 25.263977%)" offset="0.546875"/><stop stop-opacity="1" stop-color="rgb(13.374329%, 63.171387%, 25.328064%)" offset="0.550781"/><stop stop-opacity="1" stop-color="rgb(13.165283%, 63.114929%, 25.392151%)" offset="0.554687"/><stop stop-opacity="1" stop-color="rgb(12.954712%, 63.058472%, 25.456238%)" offset="0.558594"/><stop stop-opacity="1" stop-color="rgb(12.745667%, 63.00354%, 25.520325%)" offset="0.5625"/><stop stop-opacity="1" stop-color="rgb(12.535095%, 62.947083%, 25.582886%)" offset="0.566406"/><stop stop-opacity="1" stop-color="rgb(12.32605%, 62.892151%, 25.646973%)" offset="0.570312"/><stop stop-opacity="1" stop-color="rgb(12.117004%, 62.835693%, 25.71106%)" offset="0.574219"/><stop stop-opacity="1" stop-color="rgb(11.907959%, 62.779236%, 25.775146%)" offset="0.578125"/><stop stop-opacity="1" stop-color="rgb(11.697388%, 62.722778%, 25.839233%)" offset="0.582031"/><stop stop-opacity="1" stop-color="rgb(11.488342%, 62.667847%, 25.90332%)" offset="0.585937"/><stop stop-opacity="1" stop-color="rgb(11.277771%, 62.611389%, 25.965881%)" offset="0.589844"/><stop stop-opacity="1" stop-color="rgb(11.068726%, 62.554932%, 26.029968%)" offset="0.59375"/><stop stop-opacity="1" stop-color="rgb(10.858154%, 62.498474%, 26.094055%)" offset="0.597656"/><stop stop-opacity="1" stop-color="rgb(10.649109%, 62.443542%, 26.158142%)" offset="0.601562"/><stop stop-opacity="1" stop-color="rgb(10.438538%, 62.387085%, 26.220703%)" offset="0.605469"/><stop stop-opacity="1" stop-color="rgb(10.229492%, 62.332153%, 26.28479%)" offset="0.609375"/><stop stop-opacity="1" stop-color="rgb(10.020447%, 62.275696%, 26.348877%)" offset="0.613281"/><stop stop-opacity="1" stop-color="rgb(9.811401%, 62.219238%, 26.412964%)" offset="0.617187"/><stop stop-opacity="1" stop-color="rgb(9.60083%, 62.162781%, 26.477051%)" offset="0.621094"/><stop stop-opacity="1" stop-color="rgb(9.391785%, 62.107849%, 26.541138%)" offset="0.625"/><stop stop-opacity="1" stop-color="rgb(9.181213%, 62.051392%, 26.603699%)" offset="0.628906"/><stop stop-opacity="1" stop-color="rgb(8.972168%, 61.99646%, 26.667786%)" offset="0.632812"/><stop stop-opacity="1" stop-color="rgb(8.761597%, 61.940002%, 26.731873%)" offset="0.636719"/><stop stop-opacity="1" stop-color="rgb(8.552551%, 61.883545%, 26.795959%)" offset="0.640625"/><stop stop-opacity="1" stop-color="rgb(8.343506%, 61.827087%, 26.860046%)" offset="0.644531"/><stop stop-opacity="1" stop-color="rgb(8.13446%, 61.772156%, 26.924133%)" offset="0.648437"/><stop stop-opacity="1" stop-color="rgb(7.923889%, 61.715698%, 26.986694%)" offset="0.652344"/><stop stop-opacity="1" stop-color="rgb(7.714844%, 61.659241%, 27.050781%)" offset="0.65625"/><stop stop-opacity="1" stop-color="rgb(7.504272%, 61.602783%, 27.114868%)" offset="0.660156"/><stop stop-opacity="1" stop-color="rgb(7.295227%, 61.547852%, 27.178955%)" offset="0.664062"/><stop stop-opacity="1" stop-color="rgb(7.084656%, 61.491394%, 27.241516%)" offset="0.667969"/><stop stop-opacity="1" stop-color="rgb(6.87561%, 61.436462%, 27.305603%)" offset="0.671875"/><stop stop-opacity="1" stop-color="rgb(6.665039%, 61.380005%, 27.36969%)" offset="0.675781"/><stop stop-opacity="1" stop-color="rgb(6.455994%, 61.323547%, 27.433777%)" offset="0.679687"/><stop stop-opacity="1" stop-color="rgb(6.246948%, 61.26709%, 27.497864%)" offset="0.683594"/><stop stop-opacity="1" stop-color="rgb(6.037903%, 61.212158%, 27.561951%)" offset="0.6875"/><stop stop-opacity="1" stop-color="rgb(5.827332%, 61.155701%, 27.624512%)" offset="0.691406"/><stop stop-opacity="1" stop-color="rgb(5.618286%, 61.099243%, 27.688599%)" offset="0.695312"/><stop stop-opacity="1" stop-color="rgb(5.407715%, 61.042786%, 27.752686%)" offset="0.699219"/><stop stop-opacity="1" stop-color="rgb(5.198669%, 60.987854%, 27.816772%)" offset="0.703125"/><stop stop-opacity="1" stop-color="rgb(4.988098%, 60.931396%, 27.880859%)" offset="0.707031"/><stop stop-opacity="1" stop-color="rgb(4.779053%, 60.876465%, 27.944946%)" offset="0.710937"/><stop stop-opacity="1" stop-color="rgb(4.570007%, 60.820007%, 28.007507%)" offset="0.714844"/><stop stop-opacity="1" stop-color="rgb(4.360962%, 60.76355%, 28.071594%)" offset="0.71875"/><stop stop-opacity="1" stop-color="rgb(4.150391%, 60.707092%, 28.135681%)" offset="0.722656"/><stop stop-opacity="1" stop-color="rgb(3.941345%, 60.652161%, 28.199768%)" offset="0.726562"/><stop stop-opacity="1" stop-color="rgb(3.730774%, 60.595703%, 28.263855%)" offset="0.730469"/><stop stop-opacity="1" stop-color="rgb(3.521729%, 60.540771%, 28.327942%)" offset="0.734375"/><stop stop-opacity="1" stop-color="rgb(3.311157%, 60.484314%, 28.390503%)" offset="0.738281"/><stop stop-opacity="1" stop-color="rgb(3.102112%, 60.427856%, 28.45459%)" offset="0.742187"/><stop stop-opacity="1" stop-color="rgb(2.891541%, 60.371399%, 28.518677%)" offset="0.746094"/><stop stop-opacity="1" stop-color="rgb(2.682495%, 60.316467%, 28.582764%)" offset="0.75"/><stop stop-opacity="1" stop-color="rgb(2.47345%, 60.26001%, 28.645325%)" offset="0.753906"/><stop stop-opacity="1" stop-color="rgb(2.264404%, 60.203552%, 28.709412%)" offset="0.757812"/><stop stop-opacity="1" stop-color="rgb(2.053833%, 60.147095%, 28.773499%)" offset="0.761719"/><stop stop-opacity="1" stop-color="rgb(1.844788%, 60.092163%, 28.837585%)" offset="0.765625"/><stop stop-opacity="1" stop-color="rgb(1.634216%, 60.035706%, 28.901672%)" offset="0.769531"/><stop stop-opacity="1" stop-color="rgb(1.425171%, 59.980774%, 28.965759%)" offset="0.773437"/><stop stop-opacity="1" stop-color="rgb(1.2146%, 59.924316%, 29.02832%)" offset="0.777344"/><stop stop-opacity="1" stop-color="rgb(1.005554%, 59.867859%, 29.092407%)" offset="0.78125"/><stop stop-opacity="1" stop-color="rgb(0.796509%, 59.811401%, 29.156494%)" offset="0.785156"/><stop stop-opacity="1" stop-color="rgb(0.587463%, 59.75647%, 29.220581%)" offset="0.789062"/><stop stop-opacity="1" stop-color="rgb(0.376892%, 59.700012%, 29.284668%)" offset="0.792969"/><stop stop-opacity="1" stop-color="rgb(0.167847%, 59.643555%, 29.348755%)" offset="0.796875"/><stop stop-opacity="1" stop-color="rgb(0.0839233%, 59.620667%, 29.373169%)" offset="0.8125"/><stop stop-opacity="1" stop-color="rgb(0%, 59.599304%, 29.399109%)" offset="0.875"/><stop stop-opacity="1" stop-color="rgb(0%, 59.599304%, 29.399109%)" offset="1"/></linearGradient></defs><g clip-path="url(#d9071caeb3)"><g clip-path="url(#f33c314a68)"><path fill="url(#2edffd5722)" d="M 6.273438 3.289062 L 6.273438 49.101562 L 84.042969 49.101562 L 84.042969 3.289062 Z M 6.273438 3.289062 " fill-rule="nonzero"/></g></g><path fill="#ffffff" d="M 61.128906 6.265625 C 56.769531 6.265625 52.585938 8.097656 47.144531 12.394531 C 44.484375 14.53125 40.382812 14.855469 37.390625 13.171875 C 34.574219 11.589844 31.914062 10.097656 27.277344 10.097656 C 17.339844 10.097656 9.257812 18.175781 9.257812 28.109375 C 9.257812 38.042969 17.339844 46.121094 27.277344 46.121094 L 61.464844 46.117188 C 66.707031 46.03125 71.625 43.925781 75.3125 40.191406 C 79.019531 36.441406 81.0625 31.46875 81.0625 26.191406 C 81.0625 15.207031 72.121094 6.265625 61.128906 6.265625 Z M 74.726562 39.613281 C 71.191406 43.195312 66.476562 45.214844 61.460938 45.296875 L 27.277344 45.300781 C 17.792969 45.300781 10.082031 37.589844 10.082031 28.109375 C 10.082031 18.628906 17.796875 10.917969 27.277344 10.917969 C 31.695312 10.917969 34.265625 12.363281 36.988281 13.890625 C 40.261719 15.734375 44.75 15.375 47.65625 13.039062 C 52.941406 8.867188 56.972656 7.085938 61.128906 7.085938 C 71.664062 7.085938 80.238281 15.660156 80.238281 26.191406 C 80.242188 31.253906 78.28125 36.019531 74.726562 39.613281 Z M 74.726562 39.613281 " fill-opacity="1" fill-rule="nonzero"/><path fill="#ffffff" d="M 74.476562 27.136719 C 74.242188 26.71875 73.921875 26.40625 73.519531 26.1875 C 73.117188 25.972656 72.664062 25.863281 72.160156 25.863281 C 71.675781 25.863281 71.242188 25.96875 70.851562 26.175781 C 70.621094 26.300781 70.421875 26.453125 70.25 26.632812 L 70.25 26.433594 C 70.25 26.28125 70.203125 26.15625 70.109375 26.0625 C 70.011719 25.96875 69.886719 25.921875 69.734375 25.921875 C 69.582031 25.921875 69.457031 25.96875 69.363281 26.0625 C 69.269531 26.15625 69.21875 26.28125 69.21875 26.433594 L 69.21875 31.410156 C 69.21875 31.554688 69.269531 31.675781 69.363281 31.777344 C 69.457031 31.875 69.582031 31.925781 69.734375 31.925781 C 69.886719 31.925781 70.011719 31.875 70.109375 31.777344 C 70.203125 31.675781 70.25 31.554688 70.25 31.410156 L 70.25 28.261719 C 70.25 27.984375 70.324219 27.738281 70.480469 27.519531 C 70.636719 27.300781 70.839844 27.125 71.101562 26.992188 C 71.359375 26.859375 71.652344 26.796875 71.980469 26.796875 C 72.324219 26.796875 72.636719 26.863281 72.910156 26.996094 C 73.183594 27.132812 73.398438 27.339844 73.558594 27.609375 C 73.714844 27.886719 73.792969 28.234375 73.792969 28.65625 L 73.792969 31.40625 C 73.792969 31.554688 73.84375 31.675781 73.941406 31.773438 C 74.039062 31.875 74.160156 31.921875 74.308594 31.921875 C 74.453125 31.921875 74.574219 31.875 74.675781 31.773438 C 74.773438 31.675781 74.824219 31.554688 74.824219 31.40625 L 74.824219 28.65625 C 74.828125 28.058594 74.710938 27.554688 74.476562 27.136719 M 66.679688 30.007812 C 66.5 30.328125 66.257812 30.582031 65.953125 30.769531 C 65.648438 30.957031 65.300781 31.050781 64.90625 31.050781 C 64.527344 31.050781 64.179688 30.957031 63.871094 30.769531 C 63.558594 30.582031 63.3125 30.328125 63.136719 30.007812 C 62.957031 29.683594 62.867188 29.324219 62.867188 28.921875 C 62.867188 28.511719 62.957031 28.148438 63.136719 27.824219 C 63.3125 27.503906 63.558594 27.25 63.871094 27.0625 C 64.179688 26.875 64.527344 26.78125 64.90625 26.78125 C 65.304688 26.78125 65.652344 26.875 65.953125 27.0625 C 66.257812 27.25 66.5 27.503906 66.679688 27.824219 C 66.859375 28.148438 66.945312 28.511719 66.945312 28.921875 C 66.949219 29.324219 66.859375 29.683594 66.679688 30.007812 M 66.457031 26.273438 C 66.003906 26.007812 65.488281 25.871094 64.90625 25.871094 C 64.335938 25.871094 63.824219 26.007812 63.367188 26.273438 C 62.910156 26.542969 62.546875 26.902344 62.28125 27.359375 C 62.011719 27.816406 61.878906 28.335938 61.878906 28.921875 C 61.878906 29.5 62 30.015625 62.25 30.480469 C 62.5 30.9375 62.839844 31.300781 63.273438 31.5625 C 63.707031 31.828125 64.191406 31.957031 64.730469 31.957031 C 65.273438 31.957031 65.753906 31.828125 66.175781 31.570312 C 66.457031 31.394531 66.699219 31.171875 66.90625 30.910156 L 66.90625 31.410156 C 66.90625 31.554688 66.953125 31.675781 67.050781 31.777344 C 67.152344 31.875 67.273438 31.925781 67.417969 31.925781 C 67.570312 31.925781 67.699219 31.875 67.792969 31.777344 C 67.886719 31.675781 67.933594 31.554688 67.933594 31.410156 L 67.933594 28.921875 C 67.933594 28.34375 67.800781 27.824219 67.535156 27.367188 C 67.265625 26.90625 66.90625 26.542969 66.457031 26.273438 M 56.652344 28.449219 C 56.6875 28.21875 56.75 28 56.84375 27.800781 C 57.003906 27.472656 57.234375 27.214844 57.535156 27.027344 C 57.839844 26.84375 58.199219 26.75 58.617188 26.75 C 59 26.75 59.324219 26.835938 59.59375 27.011719 C 59.863281 27.1875 60.074219 27.425781 60.21875 27.730469 C 60.324219 27.945312 60.390625 28.183594 60.417969 28.445312 L 56.652344 28.445312 Z M 60.085938 26.253906 C 59.671875 26 59.183594 25.875 58.621094 25.875 C 58.050781 25.875 57.542969 26.007812 57.101562 26.265625 C 56.65625 26.527344 56.3125 26.882812 56.0625 27.339844 C 55.8125 27.796875 55.691406 28.324219 55.691406 28.925781 C 55.691406 29.515625 55.820312 30.039062 56.085938 30.496094 C 56.347656 30.953125 56.714844 31.3125 57.183594 31.570312 C 57.648438 31.832031 58.183594 31.960938 58.78125 31.960938 C 59.117188 31.960938 59.472656 31.898438 59.847656 31.769531 C 60.222656 31.640625 60.527344 31.476562 60.769531 31.28125 C 60.886719 31.191406 60.945312 31.089844 60.9375 30.96875 C 60.925781 30.847656 60.867188 30.738281 60.75 30.636719 C 60.664062 30.5625 60.558594 30.527344 60.441406 30.53125 C 60.324219 30.535156 60.214844 30.574219 60.113281 30.648438 C 59.960938 30.765625 59.757812 30.867188 59.515625 30.953125 C 59.269531 31.039062 59.027344 31.085938 58.785156 31.085938 C 58.359375 31.085938 57.984375 30.992188 57.660156 30.804688 C 57.335938 30.617188 57.078125 30.359375 56.894531 30.035156 C 56.757812 29.804688 56.675781 29.550781 56.636719 29.273438 L 60.894531 29.273438 C 61.03125 29.273438 61.144531 29.230469 61.234375 29.148438 C 61.324219 29.0625 61.367188 28.957031 61.367188 28.824219 C 61.367188 28.246094 61.253906 27.738281 61.039062 27.296875 C 60.816406 26.851562 60.496094 26.503906 60.085938 26.253906 M 53.457031 30 C 53.277344 30.328125 53.035156 30.582031 52.726562 30.769531 C 52.417969 30.957031 52.074219 31.050781 51.683594 31.050781 C 51.296875 31.050781 50.949219 30.957031 50.640625 30.769531 C 50.335938 30.582031 50.09375 30.328125 49.917969 30 C 49.742188 29.675781 49.65625 29.3125 49.65625 28.910156 C 49.65625 28.503906 49.742188 28.136719 49.917969 27.820312 C 50.09375 27.503906 50.335938 27.25 50.640625 27.0625 C 50.949219 26.875 51.296875 26.78125 51.683594 26.78125 C 52.074219 26.78125 52.417969 26.875 52.726562 27.0625 C 53.035156 27.25 53.277344 27.5 53.457031 27.820312 C 53.636719 28.136719 53.722656 28.503906 53.722656 28.910156 C 53.722656 29.3125 53.636719 29.675781 53.457031 30 M 53.320312 26.273438 C 52.886719 26.007812 52.402344 25.871094 51.859375 25.871094 C 51.40625 25.871094 50.996094 25.96875 50.621094 26.152344 C 50.25 26.339844 49.9375 26.59375 49.691406 26.917969 L 49.691406 23.871094 C 49.691406 23.71875 49.640625 23.59375 49.546875 23.496094 C 49.453125 23.402344 49.328125 23.355469 49.175781 23.355469 C 49.023438 23.355469 48.898438 23.402344 48.800781 23.496094 C 48.707031 23.59375 48.660156 23.714844 48.660156 23.871094 L 48.660156 28.921875 C 48.667969 29.5 48.800781 30.015625 49.066406 30.480469 C 49.328125 30.9375 49.691406 31.300781 50.148438 31.5625 C 50.605469 31.828125 51.121094 31.957031 51.691406 31.957031 C 52.265625 31.957031 52.785156 31.824219 53.242188 31.558594 C 53.699219 31.292969 54.0625 30.925781 54.332031 30.46875 C 54.597656 30.007812 54.730469 29.492188 54.730469 28.910156 C 54.730469 28.335938 54.605469 27.816406 54.355469 27.359375 C 54.09375 26.902344 53.75 26.542969 53.320312 26.273438 M 45.808594 30 C 45.628906 30.328125 45.386719 30.582031 45.082031 30.769531 C 44.777344 30.957031 44.429688 31.050781 44.035156 31.050781 C 43.65625 31.050781 43.308594 30.957031 43 30.769531 C 42.6875 30.582031 42.441406 30.328125 42.261719 30 C 42.085938 29.675781 41.996094 29.3125 41.996094 28.910156 C 41.996094 28.503906 42.085938 28.136719 42.261719 27.820312 C 42.441406 27.503906 42.6875 27.25 43 27.0625 C 43.308594 26.875 43.65625 26.78125 44.035156 26.78125 C 44.429688 26.78125 44.78125 26.875 45.082031 27.0625 C 45.386719 27.25 45.628906 27.5 45.808594 27.820312 C 45.984375 28.136719 46.074219 28.503906 46.074219 28.910156 C 46.078125 29.3125 45.984375 29.675781 45.808594 30 M 46.546875 23.355469 C 46.398438 23.355469 46.28125 23.402344 46.179688 23.496094 C 46.078125 23.589844 46.03125 23.710938 46.03125 23.867188 L 46.03125 26.914062 C 45.792969 26.589844 45.480469 26.339844 45.105469 26.152344 C 44.726562 25.964844 44.3125 25.871094 43.859375 25.871094 C 43.320312 25.871094 42.832031 26.003906 42.398438 26.269531 C 41.96875 26.539062 41.628906 26.902344 41.378906 27.355469 C 41.128906 27.8125 41.003906 28.328125 41.003906 28.910156 C 41.003906 29.484375 41.140625 30.003906 41.40625 30.464844 C 41.675781 30.925781 42.039062 31.289062 42.492188 31.554688 C 42.949219 31.824219 43.464844 31.953125 44.035156 31.953125 C 44.605469 31.953125 45.121094 31.824219 45.574219 31.5625 C 46.03125 31.300781 46.394531 30.9375 46.664062 30.476562 C 46.929688 30.015625 47.0625 29.5 47.0625 28.917969 L 47.0625 23.867188 C 47.0625 23.714844 47.015625 23.589844 46.921875 23.496094 C 46.824219 23.402344 46.703125 23.355469 46.546875 23.355469 M 38.773438 30.007812 C 38.59375 30.328125 38.351562 30.582031 38.046875 30.769531 C 37.742188 30.957031 37.394531 31.050781 37 31.050781 C 36.617188 31.050781 36.273438 30.957031 35.960938 30.769531 C 35.648438 30.582031 35.40625 30.328125 35.226562 30.007812 C 35.050781 29.683594 34.960938 29.324219 34.960938 28.921875 C 34.960938 28.511719 35.050781 28.148438 35.226562 27.824219 C 35.40625 27.503906 35.648438 27.25 35.960938 27.0625 C 36.273438 26.875 36.617188 26.78125 37 26.78125 C 37.394531 26.78125 37.742188 26.875 38.046875 27.0625 C 38.351562 27.25 38.59375 27.503906 38.773438 27.824219 C 38.949219 28.148438 39.039062 28.511719 39.039062 28.921875 C 39.042969 29.324219 38.953125 29.683594 38.773438 30.007812 M 38.546875 26.273438 C 38.09375 26.007812 37.578125 25.871094 37.003906 25.871094 C 36.429688 25.871094 35.917969 26.007812 35.460938 26.273438 C 35.003906 26.542969 34.640625 26.902344 34.375 27.359375 C 34.105469 27.816406 33.976562 28.335938 33.976562 28.921875 C 33.976562 29.5 34.097656 30.015625 34.347656 30.480469 C 34.597656 30.9375 34.9375 31.300781 35.371094 31.5625 C 35.800781 31.828125 36.289062 31.957031 36.828125 31.957031 C 37.371094 31.957031 37.851562 31.828125 38.273438 31.570312 C 38.554688 31.394531 38.796875 31.171875 39.003906 30.910156 L 39.003906 31.410156 C 39.003906 31.554688 39.050781 31.675781 39.148438 31.777344 C 39.246094 31.875 39.371094 31.925781 39.515625 31.925781 C 39.667969 31.925781 39.796875 31.875 39.890625 31.777344 C 39.984375 31.675781 40.03125 31.554688 40.03125 31.410156 L 40.03125 28.921875 C 40.03125 28.34375 39.898438 27.824219 39.632812 27.367188 C 39.363281 26.90625 39.003906 26.542969 38.546875 26.273438 M 31.746094 30.023438 C 31.566406 30.339844 31.328125 30.589844 31.019531 30.773438 C 30.710938 30.957031 30.359375 31.046875 29.96875 31.046875 C 29.574219 31.046875 29.222656 30.957031 28.914062 30.773438 C 28.605469 30.589844 28.367188 30.339844 28.191406 30.023438 C 28.015625 29.707031 27.925781 29.339844 27.925781 28.921875 C 27.925781 28.503906 28.015625 28.136719 28.191406 27.816406 C 28.367188 27.496094 28.605469 27.242188 28.914062 27.058594 C 29.222656 26.875 29.574219 26.785156 29.96875 26.785156 C 30.359375 26.785156 30.710938 26.875 31.019531 27.058594 C 31.328125 27.242188 31.566406 27.496094 31.746094 27.816406 C 31.921875 28.136719 32.007812 28.503906 32.007812 28.921875 C 32.007812 29.339844 31.921875 29.707031 31.746094 30.023438 M 31.523438 26.261719 C 31.070312 26.003906 30.550781 25.871094 29.964844 25.871094 C 29.378906 25.871094 28.855469 26.003906 28.398438 26.261719 C 27.941406 26.523438 27.582031 26.878906 27.324219 27.339844 C 27.0625 27.792969 26.933594 28.320312 26.933594 28.921875 C 26.933594 29.515625 27.0625 30.039062 27.324219 30.496094 C 27.582031 30.949219 27.941406 31.308594 28.398438 31.570312 C 28.855469 31.828125 29.378906 31.957031 29.964844 31.957031 C 30.558594 31.957031 31.078125 31.828125 31.535156 31.570312 C 31.988281 31.308594 32.34375 30.953125 32.605469 30.496094 C 32.863281 30.039062 32.992188 29.515625 32.992188 28.921875 C 32.992188 28.324219 32.863281 27.792969 32.601562 27.339844 C 32.335938 26.882812 31.976562 26.523438 31.523438 26.261719 M 26.609375 26.046875 C 26.40625 25.917969 26.101562 25.855469 25.699219 25.855469 C 25.265625 25.855469 24.867188 25.957031 24.507812 26.160156 C 24.246094 26.308594 24.027344 26.492188 23.84375 26.714844 L 23.84375 26.421875 C 23.84375 26.253906 23.800781 26.128906 23.714844 26.046875 C 23.632812 25.960938 23.507812 25.921875 23.339844 25.921875 C 23.179688 25.921875 23.050781 25.964844 22.964844 26.050781 C 22.875 26.136719 22.835938 26.261719 22.835938 26.421875 L 22.835938 31.410156 C 22.835938 31.578125 22.878906 31.703125 22.964844 31.785156 C 23.054688 31.871094 23.179688 31.914062 23.339844 31.914062 C 23.507812 31.914062 23.632812 31.867188 23.714844 31.78125 C 23.800781 31.695312 23.84375 31.570312 23.84375 31.410156 L 23.84375 28.1875 C 23.84375 27.84375 23.945312 27.558594 24.148438 27.332031 C 24.355469 27.109375 24.636719 26.945312 24.988281 26.851562 C 25.34375 26.757812 25.75 26.746094 26.203125 26.820312 C 26.304688 26.839844 26.398438 26.847656 26.488281 26.839844 C 26.578125 26.832031 26.652344 26.804688 26.714844 26.753906 C 26.777344 26.703125 26.820312 26.625 26.851562 26.523438 C 26.894531 26.332031 26.8125 26.171875 26.609375 26.046875 M 20.292969 30 C 20.113281 30.328125 19.871094 30.582031 19.5625 30.769531 C 19.257812 30.957031 18.910156 31.050781 18.519531 31.050781 C 18.132812 31.050781 17.785156 30.957031 17.480469 30.769531 C 17.171875 30.582031 16.929688 30.328125 16.753906 30 C 16.578125 29.675781 16.492188 29.3125 16.492188 28.910156 C 16.492188 28.503906 16.582031 28.136719 16.753906 27.820312 C 16.929688 27.503906 17.171875 27.25 17.480469 27.0625 C 17.785156 26.875 18.136719 26.78125 18.519531 26.78125 C 18.90625 26.78125 19.257812 26.875 19.5625 27.0625 C 19.871094 27.25 20.113281 27.5 20.292969 27.820312 C 20.472656 28.136719 20.5625 28.503906 20.5625 28.910156 C 20.5625 29.3125 20.472656 29.675781 20.292969 30 M 20.152344 26.273438 C 19.722656 26.007812 19.234375 25.871094 18.695312 25.871094 C 18.242188 25.871094 17.828125 25.96875 17.457031 26.152344 C 17.082031 26.339844 16.769531 26.59375 16.523438 26.917969 L 16.523438 23.871094 C 16.523438 23.71875 16.476562 23.59375 16.382812 23.496094 C 16.289062 23.402344 16.160156 23.355469 16.007812 23.355469 C 15.855469 23.355469 15.730469 23.402344 15.636719 23.496094 C 15.542969 23.59375 15.496094 23.714844 15.496094 23.871094 L 15.496094 28.921875 C 15.503906 29.5 15.636719 30.015625 15.902344 30.480469 C 16.164062 30.9375 16.527344 31.300781 16.984375 31.5625 C 17.441406 31.828125 17.953125 31.957031 18.523438 31.957031 C 19.101562 31.957031 19.617188 31.824219 20.078125 31.558594 C 20.535156 31.292969 20.898438 30.925781 21.164062 30.46875 C 21.433594 30.007812 21.566406 29.492188 21.566406 28.910156 C 21.566406 28.335938 21.441406 27.816406 21.1875 27.359375 C 20.929688 26.902344 20.585938 26.542969 20.152344 26.273438 " fill-opacity="1" fill-rule="nonzero"/><g fill="#ffffff" fill-opacity="1"><g transform="translate(28.007658, 37.660081)"><g><path d="M 1.796875 -1.921875 C 1.847656 -1.921875 1.890625 -1.90625 1.921875 -1.875 C 1.953125 -1.84375 1.96875 -1.800781 1.96875 -1.75 L 1.96875 -0.171875 C 1.96875 -0.117188 1.953125 -0.078125 1.921875 -0.046875 C 1.890625 -0.015625 1.847656 0 1.796875 0 C 1.742188 0 1.703125 -0.015625 1.671875 -0.046875 C 1.640625 -0.078125 1.625 -0.117188 1.625 -0.171875 L 1.625 -0.265625 C 1.5625 -0.179688 1.472656 -0.109375 1.359375 -0.046875 C 1.253906 0.00390625 1.140625 0.03125 1.015625 0.03125 C 0.847656 0.03125 0.695312 -0.0078125 0.5625 -0.09375 C 0.4375 -0.175781 0.332031 -0.289062 0.25 -0.4375 C 0.175781 -0.59375 0.140625 -0.765625 0.140625 -0.953125 C 0.140625 -1.140625 0.175781 -1.304688 0.25 -1.453125 C 0.332031 -1.609375 0.4375 -1.726562 0.5625 -1.8125 C 0.695312 -1.894531 0.84375 -1.9375 1 -1.9375 C 1.132812 -1.9375 1.253906 -1.910156 1.359375 -1.859375 C 1.472656 -1.804688 1.5625 -1.738281 1.625 -1.65625 L 1.625 -1.75 C 1.625 -1.800781 1.640625 -1.84375 1.671875 -1.875 C 1.703125 -1.90625 1.742188 -1.921875 1.796875 -1.921875 Z M 1.0625 -0.28125 C 1.175781 -0.28125 1.273438 -0.304688 1.359375 -0.359375 C 1.453125 -0.421875 1.519531 -0.503906 1.5625 -0.609375 C 1.613281 -0.710938 1.640625 -0.828125 1.640625 -0.953125 C 1.640625 -1.078125 1.613281 -1.191406 1.5625 -1.296875 C 1.519531 -1.398438 1.453125 -1.476562 1.359375 -1.53125 C 1.273438 -1.59375 1.175781 -1.625 1.0625 -1.625 C 0.945312 -1.625 0.84375 -1.59375 0.75 -1.53125 C 0.664062 -1.476562 0.597656 -1.398438 0.546875 -1.296875 C 0.492188 -1.191406 0.46875 -1.078125 0.46875 -0.953125 C 0.46875 -0.828125 0.492188 -0.710938 0.546875 -0.609375 C 0.597656 -0.503906 0.664062 -0.421875 0.75 -0.359375 C 0.84375 -0.304688 0.945312 -0.28125 1.0625 -0.28125 Z M 1.0625 -0.28125 "/></g></g></g><g fill="#ffffff" fill-opacity="1"><g transform="translate(30.232464, 37.660081)"><g/></g></g><g fill="#ffffff" fill-opacity="1"><g transform="translate(31.237172, 37.660081)"><g><path d="M 2.125 -2.546875 C 2.1875 -2.546875 2.238281 -2.523438 2.28125 -2.484375 C 2.320312 -2.441406 2.34375 -2.390625 2.34375 -2.328125 C 2.34375 -2.296875 2.335938 -2.265625 2.328125 -2.234375 L 1.4375 -0.140625 C 1.414062 -0.0976562 1.382812 -0.0625 1.34375 -0.03125 C 1.300781 -0.0078125 1.257812 0 1.21875 0 C 1.175781 0 1.132812 -0.0078125 1.09375 -0.03125 C 1.0625 -0.0625 1.035156 -0.0976562 1.015625 -0.140625 L 0.125 -2.234375 C 0.113281 -2.265625 0.109375 -2.296875 0.109375 -2.328125 C 0.109375 -2.390625 0.128906 -2.441406 0.171875 -2.484375 C 0.222656 -2.523438 0.273438 -2.546875 0.328125 -2.546875 C 0.367188 -2.546875 0.40625 -2.53125 0.4375 -2.5 C 0.476562 -2.476562 0.507812 -2.445312 0.53125 -2.40625 L 1.265625 -0.6875 L 1.921875 -2.40625 C 1.941406 -2.445312 1.96875 -2.476562 2 -2.5 C 2.039062 -2.53125 2.082031 -2.546875 2.125 -2.546875 Z M 2.125 -2.546875 "/></g></g></g><g fill="#ffffff" fill-opacity="1"><g transform="translate(33.69388, 37.660081)"><g><path d="M 1.96875 -1.015625 C 1.96875 -0.953125 1.945312 -0.898438 1.90625 -0.859375 C 1.863281 -0.828125 1.8125 -0.8125 1.75 -0.8125 L 0.5625 -0.8125 C 0.59375 -0.675781 0.65625 -0.566406 0.75 -0.484375 C 0.851562 -0.398438 0.972656 -0.359375 1.109375 -0.359375 C 1.210938 -0.359375 1.289062 -0.367188 1.34375 -0.390625 C 1.394531 -0.410156 1.4375 -0.429688 1.46875 -0.453125 C 1.5 -0.472656 1.523438 -0.484375 1.546875 -0.484375 C 1.585938 -0.503906 1.625 -0.515625 1.65625 -0.515625 C 1.707031 -0.515625 1.75 -0.492188 1.78125 -0.453125 C 1.820312 -0.421875 1.84375 -0.382812 1.84375 -0.34375 C 1.84375 -0.28125 1.8125 -0.21875 1.75 -0.15625 C 1.675781 -0.101562 1.582031 -0.0546875 1.46875 -0.015625 C 1.363281 0.015625 1.25 0.03125 1.125 0.03125 C 0.925781 0.03125 0.75 -0.0078125 0.59375 -0.09375 C 0.445312 -0.175781 0.332031 -0.289062 0.25 -0.4375 C 0.164062 -0.582031 0.125 -0.75 0.125 -0.9375 C 0.125 -1.144531 0.164062 -1.328125 0.25 -1.484375 C 0.34375 -1.640625 0.457031 -1.757812 0.59375 -1.84375 C 0.738281 -1.925781 0.894531 -1.96875 1.0625 -1.96875 C 1.21875 -1.96875 1.363281 -1.925781 1.5 -1.84375 C 1.644531 -1.757812 1.757812 -1.640625 1.84375 -1.484375 C 1.925781 -1.335938 1.96875 -1.179688 1.96875 -1.015625 Z M 1.0625 -1.578125 C 0.78125 -1.578125 0.613281 -1.445312 0.5625 -1.1875 L 1.515625 -1.1875 L 1.515625 -1.203125 C 1.503906 -1.304688 1.453125 -1.394531 1.359375 -1.46875 C 1.273438 -1.539062 1.175781 -1.578125 1.0625 -1.578125 Z M 1.0625 -1.578125 "/></g></g></g><g fill="#ffffff" fill-opacity="1"><g transform="translate(35.795486, 37.660081)"><g><path d="M 1.25 -1.96875 C 1.320312 -1.96875 1.378906 -1.945312 1.421875 -1.90625 C 1.472656 -1.875 1.5 -1.828125 1.5 -1.765625 C 1.5 -1.691406 1.476562 -1.632812 1.4375 -1.59375 C 1.40625 -1.5625 1.363281 -1.546875 1.3125 -1.546875 C 1.269531 -1.546875 1.226562 -1.550781 1.1875 -1.5625 C 1.175781 -1.570312 1.15625 -1.578125 1.125 -1.578125 C 1.101562 -1.585938 1.078125 -1.59375 1.046875 -1.59375 C 0.984375 -1.59375 0.921875 -1.570312 0.859375 -1.53125 C 0.804688 -1.5 0.757812 -1.441406 0.71875 -1.359375 C 0.6875 -1.285156 0.671875 -1.191406 0.671875 -1.078125 L 0.671875 -0.21875 C 0.671875 -0.15625 0.648438 -0.101562 0.609375 -0.0625 C 0.566406 -0.0195312 0.515625 0 0.453125 0 C 0.390625 0 0.335938 -0.0195312 0.296875 -0.0625 C 0.253906 -0.101562 0.234375 -0.15625 0.234375 -0.21875 L 0.234375 -1.71875 C 0.234375 -1.78125 0.253906 -1.832031 0.296875 -1.875 C 0.335938 -1.914062 0.390625 -1.9375 0.453125 -1.9375 C 0.515625 -1.9375 0.566406 -1.914062 0.609375 -1.875 C 0.648438 -1.832031 0.671875 -1.78125 0.671875 -1.71875 L 0.671875 -1.671875 C 0.722656 -1.765625 0.800781 -1.835938 0.90625 -1.890625 C 1.007812 -1.941406 1.125 -1.96875 1.25 -1.96875 Z M 1.25 -1.96875 "/></g></g></g><g fill="#ffffff" fill-opacity="1"><g transform="translate(37.368068, 37.660081)"><g><path d="M 0.640625 -0.21875 C 0.640625 -0.15625 0.617188 -0.101562 0.578125 -0.0625 C 0.535156 -0.0195312 0.484375 0 0.421875 0 C 0.359375 0 0.304688 -0.0195312 0.265625 -0.0625 C 0.222656 -0.101562 0.203125 -0.15625 0.203125 -0.21875 L 0.203125 -1.71875 C 0.203125 -1.78125 0.222656 -1.832031 0.265625 -1.875 C 0.304688 -1.914062 0.359375 -1.9375 0.421875 -1.9375 C 0.484375 -1.9375 0.535156 -1.914062 0.578125 -1.875 C 0.617188 -1.832031 0.640625 -1.78125 0.640625 -1.71875 Z M 0.4375 -2.171875 C 0.351562 -2.171875 0.289062 -2.179688 0.25 -2.203125 C 0.21875 -2.234375 0.203125 -2.285156 0.203125 -2.359375 L 0.203125 -2.421875 C 0.203125 -2.492188 0.21875 -2.539062 0.25 -2.5625 C 0.289062 -2.59375 0.351562 -2.609375 0.4375 -2.609375 C 0.519531 -2.609375 0.578125 -2.59375 0.609375 -2.5625 C 0.640625 -2.539062 0.65625 -2.492188 0.65625 -2.421875 L 0.65625 -2.359375 C 0.65625 -2.285156 0.640625 -2.234375 0.609375 -2.203125 C 0.578125 -2.179688 0.519531 -2.171875 0.4375 -2.171875 Z M 0.4375 -2.171875 "/></g></g></g><g fill="#ffffff" fill-opacity="1"><g transform="translate(38.223206, 37.660081)"><g><path d="M 1.171875 -0.40625 C 1.203125 -0.40625 1.234375 -0.390625 1.265625 -0.359375 C 1.296875 -0.328125 1.3125 -0.285156 1.3125 -0.234375 C 1.3125 -0.171875 1.273438 -0.113281 1.203125 -0.0625 C 1.128906 -0.0195312 1.046875 0 0.953125 0 C 0.804688 0 0.679688 -0.03125 0.578125 -0.09375 C 0.472656 -0.15625 0.421875 -0.289062 0.421875 -0.5 L 0.421875 -1.5 L 0.25 -1.5 C 0.195312 -1.5 0.148438 -1.519531 0.109375 -1.5625 C 0.0664062 -1.601562 0.046875 -1.648438 0.046875 -1.703125 C 0.046875 -1.765625 0.0664062 -1.8125 0.109375 -1.84375 C 0.148438 -1.882812 0.195312 -1.90625 0.25 -1.90625 L 0.421875 -1.90625 L 0.421875 -2.140625 C 0.421875 -2.203125 0.441406 -2.253906 0.484375 -2.296875 C 0.523438 -2.335938 0.578125 -2.359375 0.640625 -2.359375 C 0.703125 -2.359375 0.753906 -2.335938 0.796875 -2.296875 C 0.835938 -2.253906 0.859375 -2.203125 0.859375 -2.140625 L 0.859375 -1.90625 L 1.109375 -1.90625 C 1.171875 -1.90625 1.21875 -1.882812 1.25 -1.84375 C 1.289062 -1.800781 1.3125 -1.753906 1.3125 -1.703125 C 1.3125 -1.640625 1.289062 -1.585938 1.25 -1.546875 C 1.21875 -1.515625 1.171875 -1.5 1.109375 -1.5 L 0.859375 -1.5 L 0.859375 -0.515625 C 0.859375 -0.472656 0.867188 -0.4375 0.890625 -0.40625 C 0.921875 -0.382812 0.957031 -0.375 1 -0.375 C 1.019531 -0.375 1.050781 -0.378906 1.09375 -0.390625 C 1.113281 -0.398438 1.140625 -0.40625 1.171875 -0.40625 Z M 1.171875 -0.40625 "/></g></g></g><g fill="#ffffff" fill-opacity="1"><g transform="translate(39.7052, 37.660081)"><g><path d="M 2.09375 -0.96875 C 2.09375 -0.769531 2.050781 -0.59375 1.96875 -0.4375 C 1.882812 -0.289062 1.765625 -0.175781 1.609375 -0.09375 C 1.460938 -0.0078125 1.296875 0.03125 1.109375 0.03125 C 0.929688 0.03125 0.765625 -0.0078125 0.609375 -0.09375 C 0.460938 -0.175781 0.34375 -0.289062 0.25 -0.4375 C 0.164062 -0.59375 0.125 -0.769531 0.125 -0.96875 C 0.125 -1.164062 0.164062 -1.335938 0.25 -1.484375 C 0.34375 -1.640625 0.460938 -1.757812 0.609375 -1.84375 C 0.765625 -1.925781 0.929688 -1.96875 1.109375 -1.96875 C 1.296875 -1.96875 1.460938 -1.925781 1.609375 -1.84375 C 1.765625 -1.757812 1.882812 -1.640625 1.96875 -1.484375 C 2.050781 -1.335938 2.09375 -1.164062 2.09375 -0.96875 Z M 1.65625 -0.96875 C 1.65625 -1.082031 1.628906 -1.1875 1.578125 -1.28125 C 1.535156 -1.375 1.472656 -1.445312 1.390625 -1.5 C 1.304688 -1.550781 1.210938 -1.578125 1.109375 -1.578125 C 1.003906 -1.578125 0.910156 -1.550781 0.828125 -1.5 C 0.742188 -1.445312 0.675781 -1.375 0.625 -1.28125 C 0.582031 -1.1875 0.5625 -1.082031 0.5625 -0.96875 C 0.5625 -0.851562 0.582031 -0.75 0.625 -0.65625 C 0.675781 -0.5625 0.742188 -0.488281 0.828125 -0.4375 C 0.910156 -0.382812 1.003906 -0.359375 1.109375 -0.359375 C 1.210938 -0.359375 1.304688 -0.382812 1.390625 -0.4375 C 1.472656 -0.488281 1.535156 -0.5625 1.578125 -0.65625 C 1.628906 -0.75 1.65625 -0.851562 1.65625 -0.96875 Z M 1.65625 -0.96875 "/></g></g></g><g fill="#ffffff" fill-opacity="1"><g transform="translate(41.930006, 37.660081)"><g><path d="M 1.265625 -1.96875 C 1.515625 -1.96875 1.6875 -1.894531 1.78125 -1.75 C 1.875 -1.601562 1.921875 -1.40625 1.921875 -1.15625 L 1.921875 -0.21875 C 1.921875 -0.15625 1.898438 -0.101562 1.859375 -0.0625 C 1.816406 -0.0195312 1.765625 0 1.703125 0 C 1.640625 0 1.585938 -0.0195312 1.546875 -0.0625 C 1.503906 -0.101562 1.484375 -0.15625 1.484375 -0.21875 L 1.484375 -1.15625 C 1.484375 -1.28125 1.457031 -1.378906 1.40625 -1.453125 C 1.351562 -1.535156 1.257812 -1.578125 1.125 -1.578125 C 0.976562 -1.578125 0.863281 -1.535156 0.78125 -1.453125 C 0.707031 -1.367188 0.671875 -1.269531 0.671875 -1.15625 L 0.671875 -0.21875 C 0.671875 -0.15625 0.648438 -0.101562 0.609375 -0.0625 C 0.566406 -0.0195312 0.515625 0 0.453125 0 C 0.390625 0 0.335938 -0.0195312 0.296875 -0.0625 C 0.253906 -0.101562 0.234375 -0.15625 0.234375 -0.21875 L 0.234375 -1.71875 C 0.234375 -1.78125 0.253906 -1.832031 0.296875 -1.875 C 0.335938 -1.914062 0.390625 -1.9375 0.453125 -1.9375 C 0.515625 -1.9375 0.566406 -1.914062 0.609375 -1.875 C 0.648438 -1.832031 0.671875 -1.78125 0.671875 -1.71875 L 0.671875 -1.65625 C 0.734375 -1.738281 0.816406 -1.8125 0.921875 -1.875 C 1.023438 -1.9375 1.140625 -1.96875 1.265625 -1.96875 Z M 1.265625 -1.96875 "/></g></g></g><g fill="#ffffff" fill-opacity="1"><g transform="translate(44.089589, 37.660081)"><g><path d="M 1.96875 -1.015625 C 1.96875 -0.953125 1.945312 -0.898438 1.90625 -0.859375 C 1.863281 -0.828125 1.8125 -0.8125 1.75 -0.8125 L 0.5625 -0.8125 C 0.59375 -0.675781 0.65625 -0.566406 0.75 -0.484375 C 0.851562 -0.398438 0.972656 -0.359375 1.109375 -0.359375 C 1.210938 -0.359375 1.289062 -0.367188 1.34375 -0.390625 C 1.394531 -0.410156 1.4375 -0.429688 1.46875 -0.453125 C 1.5 -0.472656 1.523438 -0.484375 1.546875 -0.484375 C 1.585938 -0.503906 1.625 -0.515625 1.65625 -0.515625 C 1.707031 -0.515625 1.75 -0.492188 1.78125 -0.453125 C 1.820312 -0.421875 1.84375 -0.382812 1.84375 -0.34375 C 1.84375 -0.28125 1.8125 -0.21875 1.75 -0.15625 C 1.675781 -0.101562 1.582031 -0.0546875 1.46875 -0.015625 C 1.363281 0.015625 1.25 0.03125 1.125 0.03125 C 0.925781 0.03125 0.75 -0.0078125 0.59375 -0.09375 C 0.445312 -0.175781 0.332031 -0.289062 0.25 -0.4375 C 0.164062 -0.582031 0.125 -0.75 0.125 -0.9375 C 0.125 -1.144531 0.164062 -1.328125 0.25 -1.484375 C 0.34375 -1.640625 0.457031 -1.757812 0.59375 -1.84375 C 0.738281 -1.925781 0.894531 -1.96875 1.0625 -1.96875 C 1.21875 -1.96875 1.363281 -1.925781 1.5 -1.84375 C 1.644531 -1.757812 1.757812 -1.640625 1.84375 -1.484375 C 1.925781 -1.335938 1.96875 -1.179688 1.96875 -1.015625 Z M 1.0625 -1.578125 C 0.78125 -1.578125 0.613281 -1.445312 0.5625 -1.1875 L 1.515625 -1.1875 L 1.515625 -1.203125 C 1.503906 -1.304688 1.453125 -1.394531 1.359375 -1.46875 C 1.273438 -1.539062 1.175781 -1.578125 1.0625 -1.578125 Z M 1.0625 -1.578125 "/></g></g></g><g fill="#ffffff" fill-opacity="1"><g transform="translate(46.191195, 37.660081)"><g/></g></g><g fill="#ffffff" fill-opacity="1"><g transform="translate(47.207813, 37.660081)"><g><path d="M 1.078125 -1.9375 C 1.273438 -1.9375 1.4375 -1.90625 1.5625 -1.84375 C 1.6875 -1.789062 1.75 -1.71875 1.75 -1.625 C 1.75 -1.582031 1.734375 -1.539062 1.703125 -1.5 C 1.679688 -1.46875 1.648438 -1.453125 1.609375 -1.453125 C 1.578125 -1.453125 1.550781 -1.457031 1.53125 -1.46875 C 1.519531 -1.476562 1.492188 -1.492188 1.453125 -1.515625 C 1.441406 -1.535156 1.421875 -1.554688 1.390625 -1.578125 C 1.359375 -1.585938 1.316406 -1.597656 1.265625 -1.609375 C 1.210938 -1.617188 1.164062 -1.625 1.125 -1.625 C 1 -1.625 0.882812 -1.59375 0.78125 -1.53125 C 0.6875 -1.476562 0.613281 -1.398438 0.5625 -1.296875 C 0.507812 -1.191406 0.484375 -1.078125 0.484375 -0.953125 C 0.484375 -0.828125 0.507812 -0.710938 0.5625 -0.609375 C 0.613281 -0.503906 0.6875 -0.421875 0.78125 -0.359375 C 0.875 -0.304688 0.984375 -0.28125 1.109375 -0.28125 C 1.234375 -0.28125 1.332031 -0.300781 1.40625 -0.34375 C 1.425781 -0.351562 1.453125 -0.367188 1.484375 -0.390625 C 1.503906 -0.410156 1.519531 -0.425781 1.53125 -0.4375 C 1.550781 -0.445312 1.578125 -0.453125 1.609375 -0.453125 C 1.660156 -0.453125 1.695312 -0.4375 1.71875 -0.40625 C 1.75 -0.375 1.765625 -0.332031 1.765625 -0.28125 C 1.765625 -0.226562 1.734375 -0.175781 1.671875 -0.125 C 1.609375 -0.0820312 1.519531 -0.046875 1.40625 -0.015625 C 1.300781 0.015625 1.1875 0.03125 1.0625 0.03125 C 0.882812 0.03125 0.722656 -0.0078125 0.578125 -0.09375 C 0.441406 -0.175781 0.332031 -0.289062 0.25 -0.4375 C 0.175781 -0.59375 0.140625 -0.765625 0.140625 -0.953125 C 0.140625 -1.140625 0.175781 -1.304688 0.25 -1.453125 C 0.332031 -1.609375 0.445312 -1.726562 0.59375 -1.8125 C 0.738281 -1.894531 0.898438 -1.9375 1.078125 -1.9375 Z M 1.078125 -1.9375 "/></g></g></g><g fill="#ffffff" fill-opacity="1"><g transform="translate(49.070273, 37.660081)"><g><path d="M 2.0625 -0.953125 C 2.0625 -0.765625 2.015625 -0.59375 1.921875 -0.4375 C 1.835938 -0.289062 1.722656 -0.175781 1.578125 -0.09375 C 1.429688 -0.0078125 1.269531 0.03125 1.09375 0.03125 C 0.914062 0.03125 0.753906 -0.0078125 0.609375 -0.09375 C 0.460938 -0.175781 0.347656 -0.289062 0.265625 -0.4375 C 0.179688 -0.59375 0.140625 -0.765625 0.140625 -0.953125 C 0.140625 -1.140625 0.179688 -1.304688 0.265625 -1.453125 C 0.347656 -1.609375 0.460938 -1.726562 0.609375 -1.8125 C 0.753906 -1.894531 0.914062 -1.9375 1.09375 -1.9375 C 1.269531 -1.9375 1.429688 -1.894531 1.578125 -1.8125 C 1.722656 -1.726562 1.835938 -1.609375 1.921875 -1.453125 C 2.015625 -1.304688 2.0625 -1.140625 2.0625 -0.953125 Z M 1.71875 -0.953125 C 1.71875 -1.078125 1.6875 -1.191406 1.625 -1.296875 C 1.570312 -1.398438 1.5 -1.476562 1.40625 -1.53125 C 1.3125 -1.59375 1.207031 -1.625 1.09375 -1.625 C 0.976562 -1.625 0.875 -1.59375 0.78125 -1.53125 C 0.695312 -1.476562 0.625 -1.398438 0.5625 -1.296875 C 0.507812 -1.191406 0.484375 -1.078125 0.484375 -0.953125 C 0.484375 -0.816406 0.507812 -0.695312 0.5625 -0.59375 C 0.625 -0.5 0.695312 -0.421875 0.78125 -0.359375 C 0.875 -0.304688 0.976562 -0.28125 1.09375 -0.28125 C 1.207031 -0.28125 1.3125 -0.304688 1.40625 -0.359375 C 1.5 -0.421875 1.570312 -0.5 1.625 -0.59375 C 1.6875 -0.695312 1.71875 -0.816406 1.71875 -0.953125 Z M 1.71875 -0.953125 "/></g></g></g><g fill="#ffffff" fill-opacity="1"><g transform="translate(51.266091, 37.660081)"><g><path d="M 2.4375 -1.9375 C 2.851562 -1.9375 3.0625 -1.671875 3.0625 -1.140625 L 3.0625 -0.171875 C 3.0625 -0.117188 3.046875 -0.078125 3.015625 -0.046875 C 2.984375 -0.015625 2.945312 0 2.90625 0 C 2.851562 0 2.804688 -0.015625 2.765625 -0.046875 C 2.734375 -0.078125 2.71875 -0.117188 2.71875 -0.171875 L 2.71875 -1.140625 C 2.71875 -1.453125 2.585938 -1.609375 2.328125 -1.609375 C 2.234375 -1.609375 2.144531 -1.585938 2.0625 -1.546875 C 1.988281 -1.503906 1.929688 -1.445312 1.890625 -1.375 C 1.847656 -1.300781 1.828125 -1.222656 1.828125 -1.140625 L 1.828125 -0.171875 C 1.828125 -0.117188 1.8125 -0.078125 1.78125 -0.046875 C 1.75 -0.015625 1.707031 0 1.65625 0 C 1.601562 0 1.5625 -0.015625 1.53125 -0.046875 C 1.5 -0.078125 1.484375 -0.117188 1.484375 -0.171875 L 1.484375 -1.140625 C 1.484375 -1.285156 1.453125 -1.398438 1.390625 -1.484375 C 1.335938 -1.566406 1.238281 -1.609375 1.09375 -1.609375 C 0.945312 -1.609375 0.828125 -1.5625 0.734375 -1.46875 C 0.648438 -1.382812 0.609375 -1.273438 0.609375 -1.140625 L 0.609375 -0.171875 C 0.609375 -0.117188 0.585938 -0.078125 0.546875 -0.046875 C 0.515625 -0.015625 0.472656 0 0.421875 0 C 0.378906 0 0.335938 -0.015625 0.296875 -0.046875 C 0.265625 -0.078125 0.25 -0.117188 0.25 -0.171875 L 0.25 -1.71875 C 0.25 -1.769531 0.265625 -1.8125 0.296875 -1.84375 C 0.335938 -1.882812 0.378906 -1.90625 0.421875 -1.90625 C 0.472656 -1.90625 0.515625 -1.882812 0.546875 -1.84375 C 0.585938 -1.8125 0.609375 -1.769531 0.609375 -1.71875 L 0.609375 -1.59375 C 0.671875 -1.6875 0.753906 -1.765625 0.859375 -1.828125 C 0.960938 -1.898438 1.078125 -1.9375 1.203125 -1.9375 C 1.492188 -1.9375 1.6875 -1.800781 1.78125 -1.53125 C 1.832031 -1.632812 1.921875 -1.726562 2.046875 -1.8125 C 2.171875 -1.894531 2.300781 -1.9375 2.4375 -1.9375 Z M 2.4375 -1.9375 "/></g></g></g><g fill="#ffffff" fill-opacity="1"><g transform="translate(54.592428, 37.660081)"><g><path d="M 1.203125 -1.9375 C 1.367188 -1.9375 1.519531 -1.894531 1.65625 -1.8125 C 1.789062 -1.726562 1.894531 -1.609375 1.96875 -1.453125 C 2.039062 -1.304688 2.078125 -1.140625 2.078125 -0.953125 C 2.078125 -0.765625 2.039062 -0.59375 1.96875 -0.4375 C 1.894531 -0.289062 1.789062 -0.175781 1.65625 -0.09375 C 1.519531 -0.0078125 1.375 0.03125 1.21875 0.03125 C 1.09375 0.03125 0.972656 0.00390625 0.859375 -0.046875 C 0.753906 -0.109375 0.671875 -0.175781 0.609375 -0.25 L 0.609375 0.546875 C 0.609375 0.597656 0.585938 0.640625 0.546875 0.671875 C 0.515625 0.703125 0.472656 0.71875 0.421875 0.71875 C 0.378906 0.71875 0.335938 0.703125 0.296875 0.671875 C 0.265625 0.640625 0.25 0.597656 0.25 0.546875 L 0.25 -1.734375 C 0.25 -1.785156 0.265625 -1.828125 0.296875 -1.859375 C 0.335938 -1.890625 0.378906 -1.90625 0.421875 -1.90625 C 0.472656 -1.90625 0.515625 -1.890625 0.546875 -1.859375 C 0.585938 -1.828125 0.609375 -1.785156 0.609375 -1.734375 L 0.609375 -1.625 C 0.660156 -1.707031 0.738281 -1.78125 0.84375 -1.84375 C 0.957031 -1.90625 1.078125 -1.9375 1.203125 -1.9375 Z M 1.171875 -0.28125 C 1.285156 -0.28125 1.382812 -0.304688 1.46875 -0.359375 C 1.5625 -0.421875 1.628906 -0.503906 1.671875 -0.609375 C 1.722656 -0.710938 1.75 -0.828125 1.75 -0.953125 C 1.75 -1.078125 1.722656 -1.1875 1.671875 -1.28125 C 1.628906 -1.382812 1.5625 -1.460938 1.46875 -1.515625 C 1.382812 -1.578125 1.285156 -1.609375 1.171875 -1.609375 C 1.054688 -1.609375 0.953125 -1.578125 0.859375 -1.515625 C 0.773438 -1.460938 0.707031 -1.382812 0.65625 -1.28125 C 0.601562 -1.1875 0.578125 -1.078125 0.578125 -0.953125 C 0.578125 -0.828125 0.601562 -0.710938 0.65625 -0.609375 C 0.707031 -0.503906 0.773438 -0.421875 0.859375 -0.359375 C 0.953125 -0.304688 1.054688 -0.28125 1.171875 -0.28125 Z M 1.171875 -0.28125 "/></g></g></g><g fill="#ffffff" fill-opacity="1"><g transform="translate(56.817234, 37.660081)"><g><path d="M 1.796875 -1.921875 C 1.847656 -1.921875 1.890625 -1.90625 1.921875 -1.875 C 1.953125 -1.84375 1.96875 -1.800781 1.96875 -1.75 L 1.96875 -0.171875 C 1.96875 -0.117188 1.953125 -0.078125 1.921875 -0.046875 C 1.890625 -0.015625 1.847656 0 1.796875 0 C 1.742188 0 1.703125 -0.015625 1.671875 -0.046875 C 1.640625 -0.078125 1.625 -0.117188 1.625 -0.171875 L 1.625 -0.265625 C 1.5625 -0.179688 1.472656 -0.109375 1.359375 -0.046875 C 1.253906 0.00390625 1.140625 0.03125 1.015625 0.03125 C 0.847656 0.03125 0.695312 -0.0078125 0.5625 -0.09375 C 0.4375 -0.175781 0.332031 -0.289062 0.25 -0.4375 C 0.175781 -0.59375 0.140625 -0.765625 0.140625 -0.953125 C 0.140625 -1.140625 0.175781 -1.304688 0.25 -1.453125 C 0.332031 -1.609375 0.4375 -1.726562 0.5625 -1.8125 C 0.695312 -1.894531 0.84375 -1.9375 1 -1.9375 C 1.132812 -1.9375 1.253906 -1.910156 1.359375 -1.859375 C 1.472656 -1.804688 1.5625 -1.738281 1.625 -1.65625 L 1.625 -1.75 C 1.625 -1.800781 1.640625 -1.84375 1.671875 -1.875 C 1.703125 -1.90625 1.742188 -1.921875 1.796875 -1.921875 Z M 1.0625 -0.28125 C 1.175781 -0.28125 1.273438 -0.304688 1.359375 -0.359375 C 1.453125 -0.421875 1.519531 -0.503906 1.5625 -0.609375 C 1.613281 -0.710938 1.640625 -0.828125 1.640625 -0.953125 C 1.640625 -1.078125 1.613281 -1.191406 1.5625 -1.296875 C 1.519531 -1.398438 1.453125 -1.476562 1.359375 -1.53125 C 1.273438 -1.59375 1.175781 -1.625 1.0625 -1.625 C 0.945312 -1.625 0.84375 -1.59375 0.75 -1.53125 C 0.664062 -1.476562 0.597656 -1.398438 0.546875 -1.296875 C 0.492188 -1.191406 0.46875 -1.078125 0.46875 -0.953125 C 0.46875 -0.828125 0.492188 -0.710938 0.546875 -0.609375 C 0.597656 -0.503906 0.664062 -0.421875 0.75 -0.359375 C 0.84375 -0.304688 0.945312 -0.28125 1.0625 -0.28125 Z M 1.0625 -0.28125 "/></g></g></g><g fill="#ffffff" fill-opacity="1"><g transform="translate(59.04204, 37.660081)"><g><path d="M 1.21875 -1.9375 C 1.65625 -1.9375 1.875 -1.675781 1.875 -1.15625 L 1.875 -0.171875 C 1.875 -0.117188 1.859375 -0.078125 1.828125 -0.046875 C 1.796875 -0.015625 1.753906 0 1.703125 0 C 1.648438 0 1.609375 -0.015625 1.578125 -0.046875 C 1.546875 -0.078125 1.53125 -0.117188 1.53125 -0.171875 L 1.53125 -1.15625 C 1.53125 -1.300781 1.5 -1.414062 1.4375 -1.5 C 1.375 -1.582031 1.265625 -1.625 1.109375 -1.625 C 1.015625 -1.625 0.925781 -1.601562 0.84375 -1.5625 C 0.769531 -1.519531 0.710938 -1.460938 0.671875 -1.390625 C 0.628906 -1.316406 0.609375 -1.238281 0.609375 -1.15625 L 0.609375 -0.171875 C 0.609375 -0.117188 0.585938 -0.078125 0.546875 -0.046875 C 0.515625 -0.015625 0.472656 0 0.421875 0 C 0.378906 0 0.335938 -0.015625 0.296875 -0.046875 C 0.265625 -0.078125 0.25 -0.117188 0.25 -0.171875 L 0.25 -1.71875 C 0.25 -1.769531 0.265625 -1.8125 0.296875 -1.84375 C 0.335938 -1.882812 0.378906 -1.90625 0.421875 -1.90625 C 0.472656 -1.90625 0.515625 -1.882812 0.546875 -1.84375 C 0.585938 -1.8125 0.609375 -1.769531 0.609375 -1.71875 L 0.609375 -1.59375 C 0.671875 -1.695312 0.753906 -1.78125 0.859375 -1.84375 C 0.972656 -1.90625 1.09375 -1.9375 1.21875 -1.9375 Z M 1.21875 -1.9375 "/></g></g></g><g fill="#ffffff" fill-opacity="1"><g transform="translate(61.176259, 37.660081)"><g><path d="M 1.671875 -1.921875 C 1.722656 -1.921875 1.765625 -1.898438 1.796875 -1.859375 C 1.828125 -1.828125 1.84375 -1.789062 1.84375 -1.75 L 1.84375 -0.171875 C 1.84375 0.128906 1.757812 0.351562 1.59375 0.5 C 1.425781 0.644531 1.207031 0.71875 0.9375 0.71875 C 0.84375 0.71875 0.753906 0.707031 0.671875 0.6875 C 0.585938 0.675781 0.515625 0.65625 0.453125 0.625 C 0.367188 0.582031 0.328125 0.53125 0.328125 0.46875 C 0.328125 0.457031 0.328125 0.441406 0.328125 0.421875 C 0.347656 0.378906 0.367188 0.347656 0.390625 0.328125 C 0.421875 0.304688 0.453125 0.296875 0.484375 0.296875 C 0.503906 0.296875 0.519531 0.296875 0.53125 0.296875 C 0.613281 0.335938 0.679688 0.363281 0.734375 0.375 C 0.796875 0.394531 0.863281 0.40625 0.9375 0.40625 C 1.3125 0.40625 1.5 0.210938 1.5 -0.171875 L 1.5 -0.234375 C 1.4375 -0.148438 1.351562 -0.0820312 1.25 -0.03125 C 1.144531 0.0078125 1.023438 0.03125 0.890625 0.03125 C 0.691406 0.03125 0.535156 -0.03125 0.421875 -0.15625 C 0.304688 -0.28125 0.25 -0.445312 0.25 -0.65625 L 0.25 -1.75 C 0.25 -1.789062 0.265625 -1.828125 0.296875 -1.859375 C 0.335938 -1.898438 0.378906 -1.921875 0.421875 -1.921875 C 0.472656 -1.921875 0.515625 -1.898438 0.546875 -1.859375 C 0.585938 -1.828125 0.609375 -1.789062 0.609375 -1.75 L 0.609375 -0.75 C 0.609375 -0.59375 0.640625 -0.472656 0.703125 -0.390625 C 0.773438 -0.316406 0.882812 -0.28125 1.03125 -0.28125 C 1.164062 -0.28125 1.273438 -0.320312 1.359375 -0.40625 C 1.453125 -0.5 1.5 -0.613281 1.5 -0.75 L 1.5 -1.75 C 1.5 -1.789062 1.515625 -1.828125 1.546875 -1.859375 C 1.578125 -1.898438 1.617188 -1.921875 1.671875 -1.921875 Z M 1.671875 -1.921875 "/></g></g></g></svg>