<svg width="303" height="83" viewBox="0 0 303 83" fill="none" xmlns="http://www.w3.org/2000/svg">
<g clip-path="url(#clip0_223_2296)">
<path d="M132.417 17.7573H144.713V48.9221L172.015 17.7573H187.021L160.985 46.9347L187.743 80.9905H172.736L153.028 55.9677L144.711 65.2719V80.9905H132.417V17.7573Z" fill="black"/>
<path d="M187.379 57.0525C187.379 43.1412 198.142 32.301 211.155 32.301C213.838 32.2623 216.502 32.78 218.977 33.8217C221.45 34.8633 223.681 36.4063 225.528 38.353V33.1134H237.281V80.9904H225.528V75.8409C223.657 77.7446 221.418 79.2472 218.947 80.2569C216.475 81.2664 213.824 81.762 211.155 81.7129C198.136 81.714 187.379 70.4225 187.379 57.0525ZM226.252 57.0525C226.242 53.3493 224.778 49.798 222.174 47.1624C219.571 44.527 216.035 43.0179 212.33 42.96C208.602 42.96 205.027 44.44 202.39 47.0743C199.754 49.7085 198.273 53.2815 198.273 57.0069C198.273 60.7323 199.754 64.3053 202.39 66.9396C205.027 69.5738 208.602 71.0538 212.33 71.0538C216.023 71.0026 219.549 69.5082 222.152 66.8912C224.755 64.2741 226.227 60.7423 226.257 57.0525H226.252Z" fill="black"/>
<path d="M246.049 21.2808C246.121 19.3645 246.933 17.5508 248.316 16.2206C249.699 14.8905 251.543 14.1473 253.461 14.1473C255.381 14.1473 257.225 14.8905 258.608 16.2206C259.99 17.5508 260.802 19.3645 260.875 21.2808C260.782 23.183 259.961 24.9767 258.581 26.2904C257.2 27.6039 255.368 28.3365 253.461 28.3365C251.555 28.3365 249.723 27.6039 248.343 26.2904C246.963 24.9767 246.141 23.183 246.049 21.2808ZM247.495 80.9917V33.1135H259.246V80.9917H247.495Z" fill="black"/>
<path d="M302.006 80.6292C287.265 84.7851 275.607 79.4602 275.607 65.2719V43.2278H267.02V33.11H275.607V22.0897L287.27 10.5352V33.11H301.553V43.2278H287.27V65.1819C287.27 69.6077 291.88 72.8599 302.01 69.2465L302.006 80.6292Z" fill="black"/>
<path d="M16.8744 0H57.2354L43.1874 29.8216L57.2401 58.1912H9.90541L0 65.6483V16.8619C0 12.3898 1.77784 8.10094 4.9424 4.93872C8.10697 1.77652 12.399 0 16.8744 0Z" fill="#F76F48"/>
<path d="M112.726 32.578V81.3645L102.821 73.9074H55.4863L69.539 45.5377L55.4863 15.7162H95.8473C98.0637 15.7155 100.259 16.1512 102.306 16.9984C104.354 17.8454 106.215 19.0874 107.782 20.6532C109.35 22.2191 110.593 24.0781 111.442 26.1242C112.29 28.1703 112.726 30.3632 112.726 32.578Z" fill="#F78C6D"/>
</g>
<defs>
<clipPath id="clip0_223_2296">
<rect width="303" height="83" fill="white"/>
</clipPath>
</defs>
</svg>
