<svg width="212" height="97" viewBox="0 0 212 97" fill="none" xmlns="http://www.w3.org/2000/svg">
<path d="M10.5191 94.9731V59.37L20.229 94.9731H31.5573L35.6031 66.6525V94.9731H48.5496V7.58374H35.6031L25.084 66.6525L10.5191 7.58374H0V94.9731H10.5191Z" fill="#3563AE"/>
<path d="M198.244 81.2173V93.3547H212V6.77454H198.244V69.8891H184.489V6.77454H170.733L173.16 93.3547H184.489V81.2173H198.244Z" fill="#3563AE"/>
<path d="M156.977 72.3165C157.625 86.5577 151.313 80.9475 148.077 76.3623H137.558C137.125 84.5838 141.489 90.1297 145.961 93.3869C149.67 96.0886 154.61 96.5156 158.895 94.8739C184.986 84.8785 156.641 45.1326 152.122 27.8127C148.238 12.9242 153.741 16.7542 156.977 20.5303L166.687 13.2478C164.799 5.15614 157.463 -7.6286 143.222 5.9653C125.42 22.9577 156.168 54.5149 156.977 72.3165Z" fill="#3563AE"/>
<path d="M98.7175 80.4082C85.1236 16.97 104.382 2.18935 115.71 2.72879C146.134 11.1441 138.097 58.0215 130.275 80.4082C114.092 106.301 102.494 91.197 98.7175 80.4082Z" fill="#3563AE"/>
<path d="M106.809 73.081C102.179 37.4035 106.818 22.0801 111.533 16.9714C113.708 14.6144 117.425 15.2877 119.73 17.5181C128.234 25.7482 126.252 45.636 123.25 62.9601C122.083 69.695 120.955 77.2457 115.671 81.581C110.957 85.4484 108.057 78.9666 106.809 73.081Z" fill="#F3F8FE"/>
<path d="M54.8435 80.4222C41.2496 16.9841 60.5076 2.20339 71.8359 2.74283C102.26 11.1581 94.2227 58.0355 86.4008 80.4222C70.2176 106.315 58.6196 91.2111 54.8435 80.4222Z" fill="#3563AE"/>
<path d="M62.9354 73.0951C58.3055 37.4175 62.9437 22.0941 67.6588 16.9854C69.8341 14.6285 73.5514 15.3017 75.8562 17.5322C84.3607 25.7622 82.3779 45.65 79.3763 62.9741C78.2093 69.709 77.0816 77.2597 71.7972 81.5951C67.0833 85.4624 64.1829 78.9806 62.9354 73.0951Z" fill="#F3F8FE"/>
</svg>
