<svg width="411" height="90" viewBox="0 0 411 90" fill="none" xmlns="http://www.w3.org/2000/svg">
<path fill-rule="evenodd" clip-rule="evenodd" d="M276.016 41.5505C276.68 41.3474 277.489 41.2423 278.152 41.2423H289.116C293.236 41.2423 299.709 39.9154 301.131 35.3438C301.29 34.8254 301.37 34.2925 301.37 33.7523C301.37 31.8925 300.315 30.2683 298.871 29.1625C296.674 27.4767 293.674 26.9474 290.969 26.9474C282.925 26.9474 277.311 34.1402 276.016 41.5505ZM159.971 44.7734C159.093 45.1033 158.161 45.2411 157.226 45.2338L147.47 45.1577C142.755 45.1215 136.314 47.5831 135.136 52.6912C135.027 53.1553 134.973 53.6302 134.973 54.1051C134.973 54.6888 135.052 55.2653 135.208 55.8272C136.579 60.7686 142.839 63.0526 147.47 63.0526C152.098 63.0526 158.401 60.7178 159.743 55.7728C159.891 55.229 159.967 54.6671 159.967 54.1051V44.7734H159.971ZM99.8269 26.9474V63.136C100.853 62.7734 101.974 62.6719 103.055 62.6719H106.358C116.274 62.6719 125.061 55.0695 125.061 44.9257C125.061 34.7674 116.35 26.9511 106.358 26.9511H99.8269V26.9474ZM385.534 67.3486C377.99 67.3486 373.25 65.4997 368.641 59.6338L368.539 59.5033L372.024 57.0236L372.119 57.1432C373.062 58.3432 374.063 59.5468 375.27 60.4931C378.153 62.7517 381.922 63.0526 385.457 63.0526C391.006 63.0526 397.15 60.8737 397.15 54.4133C397.15 53.3801 396.914 52.4048 396.359 51.5275C394.39 48.4133 388.453 47.2496 385.098 46.4556C378.52 44.9039 369.74 42.6816 369.74 34.365C369.74 26.0665 377.131 22.8036 384.489 22.8036C390.774 22.8036 395.351 25.5118 399.286 30.3625L399.391 30.4931L395.906 32.9728L395.812 32.8568C392.486 28.713 389.461 26.8713 384.166 26.8713C379.35 26.8713 374.008 28.7529 374.008 34.365C374.008 35.4562 374.258 36.4786 374.85 37.3994C376.873 40.5535 382.806 41.7426 386.219 42.5511C392.664 44.081 401.498 46.4048 401.498 54.5656C401.494 63.484 393.527 67.3486 385.534 67.3486ZM352.64 23.9565C353.666 23.594 354.787 23.4925 355.868 23.4925H365.297V27.6363H355.868C354.428 27.6363 352.64 28.1982 352.64 29.9275V50.3565C352.72 57.2266 358.142 63.2085 365.137 63.2085H365.297V67.3523H365.137C355.788 67.3523 348.292 59.5613 348.292 50.2804V7.03687H352.64V23.9565ZM341.999 67.3486H337.811V39.8719C337.811 32.9547 332.418 27.0236 325.393 27.0236C318.368 27.0236 312.975 32.9583 312.975 39.8719V67.3486H308.627V39.8719C308.627 30.6526 315.993 22.8 325.313 22.8C334.63 22.8 341.999 30.6526 341.999 39.8719V67.3486ZM290.969 67.3486C288.92 67.3486 286.893 67.0006 284.963 66.319C276.024 63.1722 271.302 54.1958 271.302 45.0743C271.302 34.0713 279.277 22.8 290.969 22.8C296.478 22.8 303.067 24.8665 305.153 30.5293C305.534 31.5625 305.722 32.6465 305.722 33.7486C305.722 34.9269 305.508 36.0834 305.077 37.1819C302.672 43.2761 294.951 45.31 289.04 45.31H277.996C276.542 45.31 275.817 46.2671 275.817 47.6773C275.817 52.2163 278.472 56.835 281.888 59.7027C284.448 61.8562 287.593 63.2048 290.973 63.2048C296.184 63.2048 299.789 61.4357 303.02 57.2955L303.115 57.1758L306.6 59.6556L306.495 59.7861C302.349 65.032 297.794 67.3486 290.969 67.3486ZM235.587 31.4248C238.502 26.1245 244.127 22.8 250.177 22.8C259.497 22.8 267.022 30.6308 267.022 39.8719V67.3486H262.674V39.8719C262.674 32.9547 257.281 27.0236 250.256 27.0236C243.235 27.0236 237.839 32.9583 237.839 39.8719V67.3486H233.49V39.8719C233.49 32.9547 228.098 27.0236 221.073 27.0236C214.052 27.0236 208.655 32.9583 208.655 39.8719V67.3486H204.307V39.8719C204.307 30.6526 211.672 22.8 220.993 22.8C227.01 22.8036 232.689 26.1607 235.587 31.4248ZM185.245 61.5154L200.492 22.8036H205.025L185.593 71.9964C183.163 78.145 177.306 82.9632 170.532 82.9632H168.439V78.9716H170.532C176.102 78.9716 182.141 73.9758 182.141 68.1861C182.141 65.9311 181.288 62.3057 180.458 60.2103L165.701 22.8036H170.234L184.382 58.7964C184.701 59.6375 185.031 60.5982 185.245 61.5154ZM147.474 67.3486C140.953 67.3486 133.203 63.9553 131.161 57.2665C130.864 56.2912 130.711 55.2798 130.711 54.2574C130.711 53.3547 130.835 52.4592 131.07 51.5855C132.945 44.7263 140.87 41.1662 147.474 41.1662H157.229C159.01 41.1662 159.812 40.2127 159.812 38.4181V35.8912C159.812 35.2097 159.71 34.5354 159.518 33.8828C158.103 29.1625 152.584 26.9438 148.043 26.9438C143.285 26.9438 139.716 29.1625 136.8 32.8532L136.706 32.9728L133.221 30.4931L133.326 30.3625C137.127 25.577 141.972 22.8036 148.123 22.8036C154.506 22.8036 161.661 26.2695 163.674 32.7118C163.997 33.745 164.163 34.8145 164.163 35.8949V54.261C164.163 55.287 164.008 56.3021 163.71 57.281C161.665 63.9299 153.969 67.3486 147.474 67.3486ZM95.4785 22.8036H106.358C118.428 22.8036 129.493 32.429 129.493 44.7698C129.493 57.0707 118.392 66.736 106.358 66.736H103.055C101.154 66.736 99.8269 67.1493 99.8269 69.1795V82.9595H95.4785V22.8036Z" fill="black"/>
<path fill-rule="evenodd" clip-rule="evenodd" d="M9.50544 29.8296C9.51994 21.0344 17.2664 15.89 24.8026 15.89C32.3388 15.89 40.049 21.8356 40.0309 30.6308C40.0127 42.4423 40.1651 49.432 40.1469 61.229C40.1288 71.6846 46.5189 77.0755 55.6182 76.5027C68.7176 75.6797 79.1224 64.064 79.1442 49.6314L79.1768 25.8272C79.1841 20.777 74.5638 17.6701 70.2916 17.6701C66.0194 17.6701 61.3882 20.777 61.3773 25.8272L61.3265 61.229C61.3193 66.2864 60.3473 70.3359 57.6019 73.6096C55.1794 76.4991 51.3242 74.8532 51.5128 72.0616C51.589 70.9341 52.1257 70.2961 52.8112 69.4477C54.4722 67.3921 54.911 65.322 54.9146 61.229L54.9654 25.3232C54.9799 16.5281 62.7264 11.3837 70.2626 11.3837C77.7987 11.3837 85.5416 17.0393 85.5271 25.8344L85.5561 49.6314C85.5235 67.664 72.2246 81.7269 56.0171 82.7456C43.5161 83.5323 33.7096 75.6979 33.735 61.229C33.7568 49.5988 33.6915 41.9782 33.7133 30.3335C33.7241 25.2834 29.1002 22.1764 24.828 22.1764C20.5558 22.1764 15.9246 25.2834 15.9137 30.3335C15.9028 38.0991 15.9717 41.8513 15.9572 49.6314C15.9464 56.0302 18.1368 61.9758 21.9194 66.8302C25.3357 71.2133 30.6524 73.8816 35.5882 75.8973C37.514 76.684 39.0734 78.7976 38.0616 80.7698C37.4741 81.9154 36.1866 82.7383 33.5319 81.8465C27.791 79.9214 21.0962 76.0894 16.8313 70.6187C12.2182 64.7021 9.53082 57.4332 9.54533 49.6314C9.55984 41.6846 9.49093 37.7655 9.50544 29.8296Z" fill="black"/>
</svg>
