<svg width="307" height="58" viewBox="0 0 307 58" fill="none" xmlns="http://www.w3.org/2000/svg">
<g clip-path="url(#clip0_223_2304)">
<mask id="mask0_223_2304" style="mask-type:luminance" maskUnits="userSpaceOnUse" x="0" y="0" width="307" height="58">
<path d="M306.407 0H0V58H306.407V0Z" fill="white"/>
</mask>
<g mask="url(#mask0_223_2304)">
<path d="M131.292 0.698853C129.966 0.698853 128.839 1.15095 127.95 2.04693C127.052 2.94291 126.6 4.06082 126.6 5.38423C126.6 6.70765 127.052 7.75979 127.95 8.64754C128.839 9.54352 129.966 9.99563 131.292 9.99563C132.617 9.99563 133.671 9.54352 134.584 8.66399C135.514 7.76801 135.983 6.66653 135.983 5.39246C135.983 4.11836 135.514 2.93469 134.584 2.03871C133.662 1.15095 132.559 0.707074 131.292 0.707074V0.698853Z" fill="black"/>
<path d="M127.455 18.7007V57.2276H135.053V16.3909L127.455 18.7007Z" fill="black"/>
<path d="M73.2271 15.3794C67.2509 15.3794 62.1722 17.4426 58.1306 21.5032C54.0889 25.5639 52.0393 30.6768 52.0393 36.6856C52.0393 42.6944 54.13 47.8154 58.254 51.876C62.3699 55.9366 67.5391 57.9917 73.6139 57.9917C78.0177 57.9917 81.977 56.8901 85.3685 54.7037C88.7598 52.5254 91.3527 49.5991 93.0732 45.9904L93.4681 45.1602L86.8666 42.382L86.5044 43.1383C85.3355 45.5631 83.6151 47.503 81.3844 48.9087C79.1536 50.3141 76.5607 51.0294 73.688 51.0294C69.9345 51.0294 66.7243 49.8375 64.1314 47.4866C61.7689 45.3493 60.2955 42.6121 59.7604 39.3488H94.1844L94.2418 38.5349C94.7277 32.0495 92.9085 26.5093 88.8422 22.0704C84.7676 17.6317 79.5158 15.3794 73.2188 15.3794H73.2271ZM82.0923 25.5804C84.282 27.512 85.7224 29.9288 86.3891 32.7811H60.0074C60.7481 29.8876 62.2462 27.4627 64.4606 25.5475C66.9301 23.4185 69.8768 22.3418 73.2188 22.3418C76.5607 22.3418 79.6475 23.4268 82.084 25.5804" fill="black"/>
<path d="M155.863 0L148.265 2.32626V16.1604H139.4V23.205H148.265V42.752C148.265 47.5853 149.491 51.2432 151.911 53.6353C154.323 56.0191 158.052 57.2274 162.991 57.2274H167.839V50.1828H162.991C160.398 50.1828 158.538 49.6403 157.468 48.58C156.397 47.5113 155.863 45.629 155.863 42.9904V23.205H167.839V16.1604H155.863V0Z" fill="black"/>
<path d="M190.682 15.3794C184.607 15.3794 179.437 17.4344 175.322 21.495C171.198 25.5558 169.107 30.6685 169.107 36.6856C169.107 42.7024 171.198 47.8154 175.322 51.876C179.437 55.9366 184.607 57.9917 190.682 57.9917C196.756 57.9917 201.926 55.9366 206.042 51.876C210.166 47.8154 212.257 42.7024 212.257 36.6856C212.257 30.6685 210.166 25.5558 206.042 21.495C201.926 17.4344 196.756 15.3794 190.682 15.3794ZM190.682 50.7992C186.739 50.7992 183.528 49.4758 180.845 46.755C178.162 44.0259 176.861 40.7379 176.861 36.6936C176.861 32.6496 178.203 29.3204 180.845 26.6325C183.52 23.9117 186.739 22.5883 190.682 22.5883C194.624 22.5883 197.901 23.9034 200.551 26.5996C203.169 29.2628 204.502 32.666 204.502 36.7019C204.502 40.7379 203.177 44.1411 200.551 46.8043C197.901 49.5005 194.674 50.8156 190.682 50.8156V50.7992Z" fill="black"/>
<path d="M238.217 15.3794C234.612 15.3794 231.403 16.4316 228.661 18.5112C227.008 19.7689 225.632 21.2978 224.554 23.0815V16.1521H216.956V57.219H224.554V33.8908C224.554 30.5862 225.641 27.923 227.871 25.7447C230.103 23.5583 232.884 22.4979 236.357 22.4979C239.51 22.4979 242.069 23.5664 244.202 25.7613C246.343 27.9723 247.38 30.6275 247.38 33.8908V57.219H254.978V33.1921C254.978 28.1204 253.397 23.8377 250.269 20.4758C247.125 17.0974 243.075 15.3794 238.226 15.3794H238.217Z" fill="black"/>
<path d="M296.16 22.0786C292.086 17.6398 286.833 15.3876 280.536 15.3876C274.56 15.3876 269.482 17.4508 265.439 21.5114C261.398 25.572 259.349 30.6849 259.349 36.6937C259.349 42.7025 261.44 47.8235 265.563 51.8841C269.679 55.9448 274.848 57.9998 280.924 57.9998C285.327 57.9998 289.285 56.8982 292.677 54.7118C296.068 52.5335 298.661 49.6072 300.383 45.9986L300.777 45.1686L294.177 42.3902L293.814 43.1464C292.644 45.5712 290.924 47.5111 288.694 48.9168C286.462 50.3223 283.869 51.0375 280.996 51.0375C277.244 51.0375 274.033 49.8456 271.44 47.4948C269.077 45.3575 267.604 42.6203 267.069 39.357H301.493L301.551 38.5431C302.036 32.0577 300.217 26.5174 296.151 22.0786H296.16ZM271.77 25.5474C274.238 23.4186 277.186 22.3416 280.527 22.3416C283.869 22.3416 286.956 23.4266 289.393 25.5803C291.584 27.5119 293.023 29.9286 293.689 32.781H267.308C268.048 29.8876 269.546 27.4626 271.761 25.5474H271.77Z" fill="black"/>
<path d="M306.407 55.6821C306.407 56.9808 305.386 58.0002 304.061 58.0002C302.735 58.0002 301.698 56.9808 301.698 55.6821C301.698 54.3833 302.743 53.3969 304.061 53.3969C305.378 53.3969 306.407 54.4162 306.407 55.6821ZM302.283 55.6821C302.283 56.7014 303.04 57.507 304.069 57.507C305.098 57.507 305.813 56.7014 305.813 55.6903C305.813 54.6793 305.073 53.849 304.052 53.849C303.032 53.849 302.275 54.671 302.275 55.6738L302.283 55.6821ZM303.7 56.8822H303.173V54.597C303.378 54.556 303.675 54.5314 304.052 54.5314C304.49 54.5314 304.679 54.597 304.851 54.6956C304.975 54.7942 305.073 54.9751 305.073 55.1971C305.073 55.4519 304.876 55.641 304.596 55.7231V55.7479C304.818 55.83 304.942 56.0027 305.017 56.3068C305.081 56.6521 305.131 56.7917 305.181 56.8822H304.604C304.538 56.8 304.49 56.5862 304.424 56.3232C304.382 56.0684 304.243 55.9615 303.947 55.9615H303.691V56.8822H303.7ZM303.708 55.5835H303.963C304.258 55.5835 304.498 55.4849 304.498 55.2464C304.498 55.0409 304.341 54.9011 304.011 54.9011C303.872 54.9011 303.772 54.9177 303.716 54.9258V55.5835H303.708Z" fill="black"/>
<path d="M45.528 15.5934L22.7517 50.7337L27.4517 58.0002L54.9365 15.5934H45.528Z" fill="black"/>
<path d="M26.7934 42.415L9.40853 15.5934H0L17.3848 42.415H26.7934Z" fill="black"/>
<path d="M121.999 15.7083C118.113 14.9932 114.615 15.585 111.611 17.4591C109.635 18.6921 107.989 20.5581 106.696 23.0241V16.1851L99.0986 18.4949V57.219H106.696V33.8908C106.696 30.011 108.12 27.0764 111.043 24.9311C113.989 22.7693 117.463 22.1692 121.645 23.0981L122.715 23.3365V15.8316L121.99 15.7001L121.999 15.7083Z" fill="black"/>
</g>
</g>
<defs>
<clipPath id="clip0_223_2304">
<rect width="307" height="58" fill="white"/>
</clipPath>
</defs>
</svg>
