<svg width="287" height="82" viewBox="0 0 287 82" fill="none" xmlns="http://www.w3.org/2000/svg">
<path d="M176.565 19.9269H131.188V27.1744H165.843L131.188 54.9216V62.1695H176.565V54.9216H141.909L176.565 27.1744V19.9269Z" fill="#858582"/>
<path d="M221.614 62.1692H231.081L211.037 19.9266H201.635L181.787 62.1692H191.187L195.357 52.9631H217.414L221.614 62.1692ZM198.639 45.7155L206.344 28.7016L214.107 45.7155H198.639Z" fill="#858582"/>
<path d="M284.913 32.9189C284.107 30.3944 282.759 28.1636 280.866 26.2277C278.973 24.2893 276.438 22.756 273.258 21.6239C270.081 20.4924 266.122 19.9263 261.375 19.9263H237.217V62.1687H261.375C265.903 62.1687 269.741 61.5913 272.898 60.439C276.055 59.2867 278.602 57.7186 280.54 55.7376C282.476 53.7576 283.891 51.4832 284.781 48.9146C285.674 46.3464 286.121 43.6704 286.121 40.8833C286.121 38.0985 285.718 35.4436 284.913 32.9189ZM276.522 46.0421C276.003 47.6975 275.13 49.1763 273.912 50.4824C272.693 51.7884 271.049 52.8223 268.983 53.5829C266.917 54.3462 264.313 54.7254 261.181 54.7254H245.902V27.3682H261.181C264.313 27.3682 266.917 27.7392 268.983 28.4802C271.049 29.2202 272.693 30.2218 273.912 31.4832C275.13 32.7455 276.003 34.1824 276.522 35.7914C277.048 37.4027 277.308 39.0996 277.308 40.8833C277.308 42.6694 277.048 44.3879 276.522 46.0421Z" fill="#858582"/>
<path d="M38.768 18.4984H73.7469C73.5103 23.8034 71.7805 28.9344 68.7561 33.302C65.7317 37.6699 61.5351 41.0975 56.6483 43.1914L50.9425 45.6343H73.7469C73.4114 52.8954 70.2886 59.7486 65.0267 64.7711C59.7646 69.7936 52.7679 72.5996 45.489 72.6064H10.5101C10.7477 67.3015 12.4787 62.1712 15.5043 57.8045C18.5299 53.4378 22.7274 50.0115 27.6149 47.9196L33.2893 45.4769H10.5101C10.8455 38.2152 13.9682 31.3611 19.2299 26.3377C24.4918 21.3142 31.4885 18.5069 38.768 18.4984ZM36.1832 9.12997C26.4357 9.60643 17.2442 13.8054 10.5097 20.8587C3.77519 27.9121 0.0125911 37.2801 4.23939e-07 47.0256V48.5995H17.3444C12.0214 52.0372 7.64527 56.7513 4.61555 62.3118C1.58586 67.8723 -0.000946925 74.102 4.23939e-07 80.4322V82H46.2644C56.3365 81.9899 65.9934 77.9904 73.116 70.8789C80.2386 63.7673 84.2452 54.1245 84.257 44.0665V42.4926H66.9125C72.2384 39.0534 76.616 34.3361 79.6459 28.7722C82.6758 23.208 84.2612 16.9745 84.257 10.641V9.11108L36.1832 9.12997Z" fill="url(#paint0_linear_223_2320)"/>
<defs>
<linearGradient id="paint0_linear_223_2320" x1="42.1284" y1="9.11108" x2="42.1284" y2="82" gradientUnits="userSpaceOnUse">
<stop stop-color="#43AC42"/>
<stop offset="1" stop-color="#126F5B"/>
</linearGradient>
</defs>
</svg>
